<mxfile host="65bd71144e">
    <diagram id="mho6ZCY_9qYysm0xMl-8" name="第 1 页">
        <mxGraphModel dx="776" dy="498" grid="0" gridSize="10" guides="1" tooltips="1" connect="1" arrows="1" fold="1" page="0" pageScale="1" pageWidth="827" pageHeight="1169" math="0" shadow="0">
            <root>
                <mxCell id="0"/>
                <mxCell id="1" parent="0"/>
                <mxCell id="MP5oNKOP9dcL4W_LWbaU-290" value="" style="rounded=0;whiteSpace=wrap;html=1;fillColor=#f5f5f5;fontColor=#333333;strokeColor=#666666;dashed=1;" parent="1" vertex="1">
                    <mxGeometry x="342.38" y="4533" width="198.62" height="127" as="geometry"/>
                </mxCell>
                <mxCell id="MP5oNKOP9dcL4W_LWbaU-289" value="" style="rounded=0;whiteSpace=wrap;html=1;fillColor=#f5f5f5;fontColor=#333333;strokeColor=#666666;dashed=1;" parent="1" vertex="1">
                    <mxGeometry x="541.38" y="4533" width="224.62" height="127" as="geometry"/>
                </mxCell>
                <mxCell id="ZzCnzDDglhMk52raE2Vz-143" value="" style="rounded=0;whiteSpace=wrap;html=1;fillColor=#f5f5f5;fontColor=#333333;strokeColor=#666666;dashed=1;" parent="1" vertex="1">
                    <mxGeometry x="340.5" y="1525.96" width="70.5" height="103" as="geometry"/>
                </mxCell>
                <mxCell id="ZzCnzDDglhMk52raE2Vz-141" value="" style="rounded=0;whiteSpace=wrap;html=1;fillColor=#f5f5f5;fontColor=#333333;strokeColor=#666666;dashed=1;" parent="1" vertex="1">
                    <mxGeometry x="122" y="1525.96" width="92.5" height="103" as="geometry"/>
                </mxCell>
                <mxCell id="yEvSKuInoJzFRFsukNz9-1" value="" style="rounded=0;whiteSpace=wrap;html=1;fillColor=#fff2cc;strokeColor=#d6b656;" parent="1" vertex="1">
                    <mxGeometry x="176" y="266" width="279" height="58" as="geometry"/>
                </mxCell>
                <mxCell id="yEvSKuInoJzFRFsukNz9-7" value="D1" style="rounded=0;whiteSpace=wrap;html=1;fillColor=#dae8fc;strokeColor=#6c8ebf;" parent="1" vertex="1">
                    <mxGeometry x="190" y="270" width="30" height="50" as="geometry"/>
                </mxCell>
                <mxCell id="yEvSKuInoJzFRFsukNz9-8" value="D2" style="rounded=0;whiteSpace=wrap;html=1;fillColor=#dae8fc;strokeColor=#6c8ebf;" parent="1" vertex="1">
                    <mxGeometry x="235" y="270" width="30" height="50" as="geometry"/>
                </mxCell>
                <mxCell id="yEvSKuInoJzFRFsukNz9-9" value="D3" style="rounded=0;whiteSpace=wrap;html=1;fillColor=#dae8fc;strokeColor=#6c8ebf;" parent="1" vertex="1">
                    <mxGeometry x="279" y="270" width="30" height="50" as="geometry"/>
                </mxCell>
                <mxCell id="yEvSKuInoJzFRFsukNz9-10" value="D4" style="rounded=0;whiteSpace=wrap;html=1;fillColor=#dae8fc;strokeColor=#6c8ebf;" parent="1" vertex="1">
                    <mxGeometry x="324" y="270" width="30" height="50" as="geometry"/>
                </mxCell>
                <mxCell id="yEvSKuInoJzFRFsukNz9-16" style="edgeStyle=orthogonalEdgeStyle;rounded=0;orthogonalLoop=1;jettySize=auto;html=1;entryX=0.5;entryY=0;entryDx=0;entryDy=0;" parent="1" source="yEvSKuInoJzFRFsukNz9-11" target="yEvSKuInoJzFRFsukNz9-7" edge="1">
                    <mxGeometry relative="1" as="geometry"/>
                </mxCell>
                <mxCell id="yEvSKuInoJzFRFsukNz9-17" style="edgeStyle=orthogonalEdgeStyle;rounded=0;orthogonalLoop=1;jettySize=auto;html=1;entryX=0.5;entryY=0;entryDx=0;entryDy=0;" parent="1" source="yEvSKuInoJzFRFsukNz9-11" target="yEvSKuInoJzFRFsukNz9-8" edge="1">
                    <mxGeometry relative="1" as="geometry"/>
                </mxCell>
                <mxCell id="yEvSKuInoJzFRFsukNz9-18" style="edgeStyle=orthogonalEdgeStyle;rounded=0;orthogonalLoop=1;jettySize=auto;html=1;entryX=0.5;entryY=0;entryDx=0;entryDy=0;" parent="1" source="yEvSKuInoJzFRFsukNz9-11" target="yEvSKuInoJzFRFsukNz9-9" edge="1">
                    <mxGeometry relative="1" as="geometry"/>
                </mxCell>
                <mxCell id="yEvSKuInoJzFRFsukNz9-19" style="edgeStyle=orthogonalEdgeStyle;rounded=0;orthogonalLoop=1;jettySize=auto;html=1;entryX=0.5;entryY=0;entryDx=0;entryDy=0;" parent="1" source="yEvSKuInoJzFRFsukNz9-11" target="yEvSKuInoJzFRFsukNz9-10" edge="1">
                    <mxGeometry relative="1" as="geometry"/>
                </mxCell>
                <mxCell id="yEvSKuInoJzFRFsukNz9-21" style="edgeStyle=orthogonalEdgeStyle;rounded=0;orthogonalLoop=1;jettySize=auto;html=1;entryX=0.5;entryY=0;entryDx=0;entryDy=0;" parent="1" source="yEvSKuInoJzFRFsukNz9-11" target="yEvSKuInoJzFRFsukNz9-24" edge="1">
                    <mxGeometry relative="1" as="geometry">
                        <mxPoint x="437" y="200" as="targetPoint"/>
                    </mxGeometry>
                </mxCell>
                <mxCell id="yEvSKuInoJzFRFsukNz9-11" value="iNode1" style="rounded=0;whiteSpace=wrap;html=1;fillColor=#d5e8d4;strokeColor=#82b366;" parent="1" vertex="1">
                    <mxGeometry x="407" y="192" width="42" height="20" as="geometry"/>
                </mxCell>
                <mxCell id="yEvSKuInoJzFRFsukNz9-12" value="D5" style="rounded=0;whiteSpace=wrap;html=1;fillColor=#dae8fc;strokeColor=#6c8ebf;" parent="1" vertex="1">
                    <mxGeometry x="368" y="270" width="30" height="50" as="geometry"/>
                </mxCell>
                <mxCell id="yEvSKuInoJzFRFsukNz9-13" value="D6" style="rounded=0;whiteSpace=wrap;html=1;fillColor=#dae8fc;strokeColor=#6c8ebf;" parent="1" vertex="1">
                    <mxGeometry x="413" y="270" width="30" height="50" as="geometry"/>
                </mxCell>
                <mxCell id="yEvSKuInoJzFRFsukNz9-22" style="edgeStyle=orthogonalEdgeStyle;rounded=0;orthogonalLoop=1;jettySize=auto;html=1;entryX=0.5;entryY=0;entryDx=0;entryDy=0;exitX=0;exitY=0.5;exitDx=0;exitDy=0;" parent="1" source="yEvSKuInoJzFRFsukNz9-24" target="yEvSKuInoJzFRFsukNz9-12" edge="1">
                    <mxGeometry relative="1" as="geometry">
                        <mxPoint x="400" y="218" as="sourcePoint"/>
                    </mxGeometry>
                </mxCell>
                <mxCell id="yEvSKuInoJzFRFsukNz9-23" style="edgeStyle=orthogonalEdgeStyle;rounded=0;orthogonalLoop=1;jettySize=auto;html=1;entryX=0.5;entryY=0;entryDx=0;entryDy=0;exitX=0.5;exitY=1;exitDx=0;exitDy=0;" parent="1" source="yEvSKuInoJzFRFsukNz9-24" target="yEvSKuInoJzFRFsukNz9-13" edge="1">
                    <mxGeometry relative="1" as="geometry">
                        <mxPoint x="428" y="229" as="sourcePoint"/>
                    </mxGeometry>
                </mxCell>
                <mxCell id="yEvSKuInoJzFRFsukNz9-24" value="iNode2" style="rounded=0;whiteSpace=wrap;html=1;fillColor=#d5e8d4;strokeColor=#82b366;" parent="1" vertex="1">
                    <mxGeometry x="407" y="231" width="42" height="20" as="geometry"/>
                </mxCell>
                <mxCell id="ZzCnzDDglhMk52raE2Vz-4" value="D1" style="rounded=0;whiteSpace=wrap;html=1;fillColor=#dae8fc;strokeColor=#6c8ebf;" parent="1" vertex="1">
                    <mxGeometry x="216" y="400" width="30" height="50" as="geometry"/>
                </mxCell>
                <mxCell id="ZzCnzDDglhMk52raE2Vz-6" style="edgeStyle=orthogonalEdgeStyle;rounded=0;orthogonalLoop=1;jettySize=auto;html=1;entryX=0.75;entryY=1;entryDx=0;entryDy=0;exitX=0.5;exitY=1;exitDx=0;exitDy=0;" parent="1" source="ZzCnzDDglhMk52raE2Vz-5" target="ZzCnzDDglhMk52raE2Vz-4" edge="1">
                    <mxGeometry relative="1" as="geometry">
                        <Array as="points">
                            <mxPoint x="266" y="470"/>
                            <mxPoint x="239" y="470"/>
                        </Array>
                    </mxGeometry>
                </mxCell>
                <mxCell id="ZzCnzDDglhMk52raE2Vz-5" value="iNode1" style="rounded=0;whiteSpace=wrap;html=1;fillColor=#d5e8d4;strokeColor=#82b366;" parent="1" vertex="1">
                    <mxGeometry x="246" y="400" width="39" height="50" as="geometry"/>
                </mxCell>
                <mxCell id="ZzCnzDDglhMk52raE2Vz-15" value="D2" style="rounded=0;whiteSpace=wrap;html=1;fillColor=#dae8fc;strokeColor=#6c8ebf;" parent="1" vertex="1">
                    <mxGeometry x="285" y="400" width="30" height="50" as="geometry"/>
                </mxCell>
                <mxCell id="ZzCnzDDglhMk52raE2Vz-16" style="edgeStyle=orthogonalEdgeStyle;rounded=0;orthogonalLoop=1;jettySize=auto;html=1;entryX=0.75;entryY=1;entryDx=0;entryDy=0;exitX=0.5;exitY=1;exitDx=0;exitDy=0;" parent="1" source="ZzCnzDDglhMk52raE2Vz-17" target="ZzCnzDDglhMk52raE2Vz-15" edge="1">
                    <mxGeometry relative="1" as="geometry">
                        <Array as="points">
                            <mxPoint x="335" y="470"/>
                            <mxPoint x="308" y="470"/>
                        </Array>
                    </mxGeometry>
                </mxCell>
                <mxCell id="ZzCnzDDglhMk52raE2Vz-17" value="iNode2" style="rounded=0;whiteSpace=wrap;html=1;fillColor=#d5e8d4;strokeColor=#82b366;" parent="1" vertex="1">
                    <mxGeometry x="315" y="400" width="39" height="50" as="geometry"/>
                </mxCell>
                <mxCell id="ZzCnzDDglhMk52raE2Vz-21" value="D1" style="rounded=0;whiteSpace=wrap;html=1;fillColor=#dae8fc;strokeColor=#6c8ebf;" parent="1" vertex="1">
                    <mxGeometry x="216" y="588" width="30" height="50" as="geometry"/>
                </mxCell>
                <mxCell id="ZzCnzDDglhMk52raE2Vz-22" style="edgeStyle=orthogonalEdgeStyle;rounded=0;orthogonalLoop=1;jettySize=auto;html=1;entryX=0.75;entryY=1;entryDx=0;entryDy=0;exitX=0.5;exitY=1;exitDx=0;exitDy=0;" parent="1" source="ZzCnzDDglhMk52raE2Vz-23" target="ZzCnzDDglhMk52raE2Vz-21" edge="1">
                    <mxGeometry relative="1" as="geometry">
                        <Array as="points">
                            <mxPoint x="266" y="658"/>
                            <mxPoint x="239" y="658"/>
                        </Array>
                    </mxGeometry>
                </mxCell>
                <mxCell id="ZzCnzDDglhMk52raE2Vz-23" value="iNode1" style="rounded=0;whiteSpace=wrap;html=1;fillColor=#d5e8d4;strokeColor=#82b366;" parent="1" vertex="1">
                    <mxGeometry x="246" y="588" width="39" height="50" as="geometry"/>
                </mxCell>
                <mxCell id="ZzCnzDDglhMk52raE2Vz-24" value="D2" style="rounded=0;whiteSpace=wrap;html=1;fillColor=#dae8fc;strokeColor=#6c8ebf;" parent="1" vertex="1">
                    <mxGeometry x="285" y="588" width="30" height="50" as="geometry"/>
                </mxCell>
                <mxCell id="ZzCnzDDglhMk52raE2Vz-25" style="edgeStyle=orthogonalEdgeStyle;rounded=0;orthogonalLoop=1;jettySize=auto;html=1;entryX=0.75;entryY=1;entryDx=0;entryDy=0;exitX=0.5;exitY=1;exitDx=0;exitDy=0;" parent="1" source="ZzCnzDDglhMk52raE2Vz-26" target="ZzCnzDDglhMk52raE2Vz-24" edge="1">
                    <mxGeometry relative="1" as="geometry">
                        <Array as="points">
                            <mxPoint x="335" y="658"/>
                            <mxPoint x="308" y="658"/>
                        </Array>
                    </mxGeometry>
                </mxCell>
                <mxCell id="ZzCnzDDglhMk52raE2Vz-26" value="iNode2" style="rounded=0;whiteSpace=wrap;html=1;fillColor=#d5e8d4;strokeColor=#82b366;" parent="1" vertex="1">
                    <mxGeometry x="315" y="588" width="39" height="50" as="geometry"/>
                </mxCell>
                <mxCell id="ZzCnzDDglhMk52raE2Vz-27" value="D3" style="rounded=0;whiteSpace=wrap;html=1;fillColor=#dae8fc;strokeColor=#6c8ebf;" parent="1" vertex="1">
                    <mxGeometry x="354" y="588" width="30" height="50" as="geometry"/>
                </mxCell>
                <mxCell id="ZzCnzDDglhMk52raE2Vz-28" style="edgeStyle=orthogonalEdgeStyle;rounded=0;orthogonalLoop=1;jettySize=auto;html=1;entryX=0.75;entryY=1;entryDx=0;entryDy=0;exitX=0.5;exitY=1;exitDx=0;exitDy=0;" parent="1" source="ZzCnzDDglhMk52raE2Vz-29" target="ZzCnzDDglhMk52raE2Vz-27" edge="1">
                    <mxGeometry relative="1" as="geometry">
                        <Array as="points">
                            <mxPoint x="404" y="658"/>
                            <mxPoint x="377" y="658"/>
                        </Array>
                    </mxGeometry>
                </mxCell>
                <mxCell id="ZzCnzDDglhMk52raE2Vz-29" value="iNode1" style="rounded=0;whiteSpace=wrap;html=1;fillColor=#d5e8d4;strokeColor=#82b366;" parent="1" vertex="1">
                    <mxGeometry x="384" y="588" width="39" height="50" as="geometry"/>
                </mxCell>
                <mxCell id="ZzCnzDDglhMk52raE2Vz-31" value="D1" style="rounded=0;whiteSpace=wrap;html=1;fillColor=#dae8fc;strokeColor=#6c8ebf;" parent="1" vertex="1">
                    <mxGeometry x="212" y="839" width="30" height="50" as="geometry"/>
                </mxCell>
                <mxCell id="ZzCnzDDglhMk52raE2Vz-32" style="edgeStyle=orthogonalEdgeStyle;rounded=0;orthogonalLoop=1;jettySize=auto;html=1;entryX=0.75;entryY=1;entryDx=0;entryDy=0;exitX=0.5;exitY=1;exitDx=0;exitDy=0;" parent="1" source="ZzCnzDDglhMk52raE2Vz-33" target="ZzCnzDDglhMk52raE2Vz-31" edge="1">
                    <mxGeometry relative="1" as="geometry">
                        <Array as="points">
                            <mxPoint x="262" y="909"/>
                            <mxPoint x="235" y="909"/>
                        </Array>
                    </mxGeometry>
                </mxCell>
                <mxCell id="ZzCnzDDglhMk52raE2Vz-33" value="iNode1" style="rounded=0;whiteSpace=wrap;html=1;fillColor=#d5e8d4;strokeColor=#82b366;" parent="1" vertex="1">
                    <mxGeometry x="242" y="839" width="39" height="50" as="geometry"/>
                </mxCell>
                <mxCell id="ZzCnzDDglhMk52raE2Vz-34" value="D2" style="rounded=0;whiteSpace=wrap;html=1;fillColor=#dae8fc;strokeColor=#6c8ebf;" parent="1" vertex="1">
                    <mxGeometry x="281" y="839" width="30" height="50" as="geometry"/>
                </mxCell>
                <mxCell id="ZzCnzDDglhMk52raE2Vz-35" style="edgeStyle=orthogonalEdgeStyle;rounded=0;orthogonalLoop=1;jettySize=auto;html=1;entryX=0.75;entryY=1;entryDx=0;entryDy=0;exitX=0.5;exitY=1;exitDx=0;exitDy=0;" parent="1" source="ZzCnzDDglhMk52raE2Vz-36" target="ZzCnzDDglhMk52raE2Vz-34" edge="1">
                    <mxGeometry relative="1" as="geometry">
                        <Array as="points">
                            <mxPoint x="331" y="909"/>
                            <mxPoint x="304" y="909"/>
                        </Array>
                    </mxGeometry>
                </mxCell>
                <mxCell id="ZzCnzDDglhMk52raE2Vz-36" value="iNode2" style="rounded=0;whiteSpace=wrap;html=1;fillColor=#d5e8d4;strokeColor=#82b366;" parent="1" vertex="1">
                    <mxGeometry x="311" y="839" width="39" height="50" as="geometry"/>
                </mxCell>
                <mxCell id="ZzCnzDDglhMk52raE2Vz-37" value="D3" style="rounded=0;whiteSpace=wrap;html=1;fillColor=#dae8fc;strokeColor=#6c8ebf;" parent="1" vertex="1">
                    <mxGeometry x="350" y="839" width="30" height="50" as="geometry"/>
                </mxCell>
                <mxCell id="ZzCnzDDglhMk52raE2Vz-38" style="edgeStyle=orthogonalEdgeStyle;rounded=0;orthogonalLoop=1;jettySize=auto;html=1;entryX=0.75;entryY=1;entryDx=0;entryDy=0;exitX=0.5;exitY=1;exitDx=0;exitDy=0;" parent="1" source="ZzCnzDDglhMk52raE2Vz-39" target="ZzCnzDDglhMk52raE2Vz-37" edge="1">
                    <mxGeometry relative="1" as="geometry">
                        <Array as="points">
                            <mxPoint x="400" y="909"/>
                            <mxPoint x="373" y="909"/>
                        </Array>
                    </mxGeometry>
                </mxCell>
                <mxCell id="ZzCnzDDglhMk52raE2Vz-39" value="iNode1" style="rounded=0;whiteSpace=wrap;html=1;fillColor=#d5e8d4;strokeColor=#82b366;" parent="1" vertex="1">
                    <mxGeometry x="380" y="839" width="39" height="50" as="geometry"/>
                </mxCell>
                <mxCell id="ZzCnzDDglhMk52raE2Vz-48" style="edgeStyle=orthogonalEdgeStyle;rounded=0;orthogonalLoop=1;jettySize=auto;html=1;entryX=0.5;entryY=0;entryDx=0;entryDy=0;strokeColor=default;" parent="1" source="ZzCnzDDglhMk52raE2Vz-40" target="ZzCnzDDglhMk52raE2Vz-39" edge="1">
                    <mxGeometry relative="1" as="geometry"/>
                </mxCell>
                <mxCell id="ZzCnzDDglhMk52raE2Vz-49" style="edgeStyle=orthogonalEdgeStyle;rounded=0;orthogonalLoop=1;jettySize=auto;html=1;exitX=0;exitY=0.25;exitDx=0;exitDy=0;entryX=0.5;entryY=0;entryDx=0;entryDy=0;strokeColor=default;" parent="1" source="ZzCnzDDglhMk52raE2Vz-40" target="ZzCnzDDglhMk52raE2Vz-36" edge="1">
                    <mxGeometry relative="1" as="geometry"/>
                </mxCell>
                <mxCell id="ZzCnzDDglhMk52raE2Vz-40" value="iNode1:2&lt;br&gt;iNode2:1&lt;br&gt;......" style="rounded=0;whiteSpace=wrap;html=1;fillColor=#fff2cc;strokeColor=#d6b656;" parent="1" vertex="1">
                    <mxGeometry x="457" y="755" width="61" height="69" as="geometry"/>
                </mxCell>
                <mxCell id="ZzCnzDDglhMk52raE2Vz-41" value="iMap" style="text;html=1;align=center;verticalAlign=middle;resizable=0;points=[];autosize=1;strokeColor=none;fillColor=none;" parent="1" vertex="1">
                    <mxGeometry x="469.5" y="737" width="36" height="18" as="geometry"/>
                </mxCell>
                <mxCell id="ZzCnzDDglhMk52raE2Vz-45" value="0" style="text;html=1;align=center;verticalAlign=middle;resizable=0;points=[];autosize=1;strokeColor=none;fillColor=none;" parent="1" vertex="1">
                    <mxGeometry x="233" y="815" width="17" height="18" as="geometry"/>
                </mxCell>
                <mxCell id="ZzCnzDDglhMk52raE2Vz-46" value="1" style="text;html=1;align=center;verticalAlign=middle;resizable=0;points=[];autosize=1;strokeColor=none;fillColor=none;" parent="1" vertex="1">
                    <mxGeometry x="303" y="815" width="17" height="18" as="geometry"/>
                </mxCell>
                <mxCell id="ZzCnzDDglhMk52raE2Vz-47" value="2" style="text;html=1;align=center;verticalAlign=middle;resizable=0;points=[];autosize=1;strokeColor=none;fillColor=none;" parent="1" vertex="1">
                    <mxGeometry x="372" y="815" width="17" height="18" as="geometry"/>
                </mxCell>
                <mxCell id="ZzCnzDDglhMk52raE2Vz-50" value="D1" style="rounded=0;whiteSpace=wrap;html=1;fillColor=#dae8fc;strokeColor=#6c8ebf;" parent="1" vertex="1">
                    <mxGeometry x="212" y="992" width="30" height="50" as="geometry"/>
                </mxCell>
                <mxCell id="ZzCnzDDglhMk52raE2Vz-51" style="edgeStyle=orthogonalEdgeStyle;rounded=0;orthogonalLoop=1;jettySize=auto;html=1;entryX=0.75;entryY=1;entryDx=0;entryDy=0;exitX=0.5;exitY=1;exitDx=0;exitDy=0;" parent="1" source="ZzCnzDDglhMk52raE2Vz-52" target="ZzCnzDDglhMk52raE2Vz-50" edge="1">
                    <mxGeometry relative="1" as="geometry">
                        <Array as="points">
                            <mxPoint x="262" y="1062"/>
                            <mxPoint x="235" y="1062"/>
                        </Array>
                    </mxGeometry>
                </mxCell>
                <mxCell id="ZzCnzDDglhMk52raE2Vz-52" value="iNode1" style="rounded=0;whiteSpace=wrap;html=1;fillColor=#d5e8d4;strokeColor=#82b366;" parent="1" vertex="1">
                    <mxGeometry x="242" y="992" width="39" height="50" as="geometry"/>
                </mxCell>
                <mxCell id="ZzCnzDDglhMk52raE2Vz-53" value="D2" style="rounded=0;whiteSpace=wrap;html=1;fillColor=#dae8fc;strokeColor=#6c8ebf;" parent="1" vertex="1">
                    <mxGeometry x="281" y="992" width="30" height="50" as="geometry"/>
                </mxCell>
                <mxCell id="ZzCnzDDglhMk52raE2Vz-54" style="edgeStyle=orthogonalEdgeStyle;rounded=0;orthogonalLoop=1;jettySize=auto;html=1;entryX=0.75;entryY=1;entryDx=0;entryDy=0;exitX=0.5;exitY=1;exitDx=0;exitDy=0;" parent="1" source="ZzCnzDDglhMk52raE2Vz-55" target="ZzCnzDDglhMk52raE2Vz-53" edge="1">
                    <mxGeometry relative="1" as="geometry">
                        <Array as="points">
                            <mxPoint x="331" y="1062"/>
                            <mxPoint x="304" y="1062"/>
                        </Array>
                    </mxGeometry>
                </mxCell>
                <mxCell id="ZzCnzDDglhMk52raE2Vz-55" value="iNode2" style="rounded=0;whiteSpace=wrap;html=1;fillColor=#d5e8d4;strokeColor=#82b366;" parent="1" vertex="1">
                    <mxGeometry x="311" y="992" width="39" height="50" as="geometry"/>
                </mxCell>
                <mxCell id="ZzCnzDDglhMk52raE2Vz-56" value="D3" style="rounded=0;whiteSpace=wrap;html=1;fillColor=#dae8fc;strokeColor=#6c8ebf;" parent="1" vertex="1">
                    <mxGeometry x="350" y="992" width="30" height="50" as="geometry"/>
                </mxCell>
                <mxCell id="ZzCnzDDglhMk52raE2Vz-57" style="edgeStyle=orthogonalEdgeStyle;rounded=0;orthogonalLoop=1;jettySize=auto;html=1;entryX=0.75;entryY=1;entryDx=0;entryDy=0;exitX=0.5;exitY=1;exitDx=0;exitDy=0;" parent="1" source="ZzCnzDDglhMk52raE2Vz-58" target="ZzCnzDDglhMk52raE2Vz-56" edge="1">
                    <mxGeometry relative="1" as="geometry">
                        <Array as="points">
                            <mxPoint x="400" y="1062"/>
                            <mxPoint x="373" y="1062"/>
                        </Array>
                    </mxGeometry>
                </mxCell>
                <mxCell id="ZzCnzDDglhMk52raE2Vz-58" value="iNode1" style="rounded=0;whiteSpace=wrap;html=1;fillColor=#d5e8d4;strokeColor=#82b366;" parent="1" vertex="1">
                    <mxGeometry x="380" y="992" width="39" height="50" as="geometry"/>
                </mxCell>
                <mxCell id="ZzCnzDDglhMk52raE2Vz-59" value="0" style="text;html=1;align=center;verticalAlign=middle;resizable=0;points=[];autosize=1;strokeColor=none;fillColor=none;" parent="1" vertex="1">
                    <mxGeometry x="233" y="968" width="17" height="18" as="geometry"/>
                </mxCell>
                <mxCell id="ZzCnzDDglhMk52raE2Vz-60" value="1" style="text;html=1;align=center;verticalAlign=middle;resizable=0;points=[];autosize=1;strokeColor=none;fillColor=none;" parent="1" vertex="1">
                    <mxGeometry x="303" y="968" width="17" height="18" as="geometry"/>
                </mxCell>
                <mxCell id="ZzCnzDDglhMk52raE2Vz-61" value="2" style="text;html=1;align=center;verticalAlign=middle;resizable=0;points=[];autosize=1;strokeColor=none;fillColor=none;" parent="1" vertex="1">
                    <mxGeometry x="372" y="968" width="17" height="18" as="geometry"/>
                </mxCell>
                <mxCell id="ZzCnzDDglhMk52raE2Vz-63" style="edgeStyle=orthogonalEdgeStyle;rounded=0;orthogonalLoop=1;jettySize=auto;html=1;entryX=0.5;entryY=0;entryDx=0;entryDy=0;strokeColor=default;" parent="1" source="ZzCnzDDglhMk52raE2Vz-62" target="ZzCnzDDglhMk52raE2Vz-55" edge="1">
                    <mxGeometry relative="1" as="geometry">
                        <Array as="points">
                            <mxPoint x="464" y="955"/>
                            <mxPoint x="331" y="955"/>
                        </Array>
                    </mxGeometry>
                </mxCell>
                <mxCell id="ZzCnzDDglhMk52raE2Vz-64" style="edgeStyle=orthogonalEdgeStyle;rounded=0;orthogonalLoop=1;jettySize=auto;html=1;exitX=0.5;exitY=0;exitDx=0;exitDy=0;entryX=0.5;entryY=0;entryDx=0;entryDy=0;strokeColor=default;" parent="1" source="ZzCnzDDglhMk52raE2Vz-62" target="ZzCnzDDglhMk52raE2Vz-58" edge="1">
                    <mxGeometry relative="1" as="geometry">
                        <Array as="points">
                            <mxPoint x="448" y="963"/>
                            <mxPoint x="399" y="963"/>
                            <mxPoint x="399" y="969"/>
                        </Array>
                    </mxGeometry>
                </mxCell>
                <mxCell id="ZzCnzDDglhMk52raE2Vz-62" value="iNode1:2&lt;br&gt;iNode2:1&lt;br&gt;......" style="rounded=0;whiteSpace=wrap;html=1;fillColor=#fff2cc;strokeColor=#d6b656;" parent="1" vertex="1">
                    <mxGeometry x="419" y="992" width="57" height="50" as="geometry"/>
                </mxCell>
                <mxCell id="ZzCnzDDglhMk52raE2Vz-80" value="D1" style="rounded=0;whiteSpace=wrap;html=1;fillColor=#dae8fc;strokeColor=#6c8ebf;" parent="1" vertex="1">
                    <mxGeometry x="191" y="1330" width="30" height="50" as="geometry"/>
                </mxCell>
                <mxCell id="ZzCnzDDglhMk52raE2Vz-81" style="edgeStyle=orthogonalEdgeStyle;rounded=0;orthogonalLoop=1;jettySize=auto;html=1;entryX=0.75;entryY=1;entryDx=0;entryDy=0;exitX=0.5;exitY=1;exitDx=0;exitDy=0;" parent="1" source="ZzCnzDDglhMk52raE2Vz-82" target="ZzCnzDDglhMk52raE2Vz-80" edge="1">
                    <mxGeometry relative="1" as="geometry">
                        <Array as="points">
                            <mxPoint x="241" y="1400"/>
                            <mxPoint x="214" y="1400"/>
                        </Array>
                    </mxGeometry>
                </mxCell>
                <mxCell id="ZzCnzDDglhMk52raE2Vz-82" value="iNode1" style="rounded=0;whiteSpace=wrap;html=1;fillColor=#d5e8d4;strokeColor=#82b366;" parent="1" vertex="1">
                    <mxGeometry x="221" y="1330" width="39" height="50" as="geometry"/>
                </mxCell>
                <mxCell id="ZzCnzDDglhMk52raE2Vz-83" value="D2" style="rounded=0;whiteSpace=wrap;html=1;fillColor=#dae8fc;strokeColor=#6c8ebf;" parent="1" vertex="1">
                    <mxGeometry x="260" y="1330" width="30" height="50" as="geometry"/>
                </mxCell>
                <mxCell id="ZzCnzDDglhMk52raE2Vz-84" style="edgeStyle=orthogonalEdgeStyle;rounded=0;orthogonalLoop=1;jettySize=auto;html=1;entryX=0.75;entryY=1;entryDx=0;entryDy=0;exitX=0.5;exitY=1;exitDx=0;exitDy=0;" parent="1" source="ZzCnzDDglhMk52raE2Vz-85" target="ZzCnzDDglhMk52raE2Vz-83" edge="1">
                    <mxGeometry relative="1" as="geometry">
                        <Array as="points">
                            <mxPoint x="310" y="1400"/>
                            <mxPoint x="283" y="1400"/>
                        </Array>
                    </mxGeometry>
                </mxCell>
                <mxCell id="ZzCnzDDglhMk52raE2Vz-85" value="iNode2" style="rounded=0;whiteSpace=wrap;html=1;fillColor=#d5e8d4;strokeColor=#82b366;" parent="1" vertex="1">
                    <mxGeometry x="290" y="1330" width="39" height="50" as="geometry"/>
                </mxCell>
                <mxCell id="ZzCnzDDglhMk52raE2Vz-86" value="D3" style="rounded=0;whiteSpace=wrap;html=1;fillColor=#dae8fc;strokeColor=#6c8ebf;" parent="1" vertex="1">
                    <mxGeometry x="329" y="1330" width="30" height="50" as="geometry"/>
                </mxCell>
                <mxCell id="ZzCnzDDglhMk52raE2Vz-87" style="edgeStyle=orthogonalEdgeStyle;rounded=0;orthogonalLoop=1;jettySize=auto;html=1;entryX=0.75;entryY=1;entryDx=0;entryDy=0;exitX=0.5;exitY=1;exitDx=0;exitDy=0;" parent="1" source="ZzCnzDDglhMk52raE2Vz-88" target="ZzCnzDDglhMk52raE2Vz-86" edge="1">
                    <mxGeometry relative="1" as="geometry">
                        <Array as="points">
                            <mxPoint x="379" y="1400"/>
                            <mxPoint x="352" y="1400"/>
                        </Array>
                    </mxGeometry>
                </mxCell>
                <mxCell id="ZzCnzDDglhMk52raE2Vz-88" value="iNode1" style="rounded=0;whiteSpace=wrap;html=1;fillColor=#d5e8d4;strokeColor=#82b366;" parent="1" vertex="1">
                    <mxGeometry x="359" y="1330" width="39" height="50" as="geometry"/>
                </mxCell>
                <mxCell id="ZzCnzDDglhMk52raE2Vz-89" value="0" style="text;html=1;align=center;verticalAlign=middle;resizable=0;points=[];autosize=1;strokeColor=none;fillColor=none;" parent="1" vertex="1">
                    <mxGeometry x="212" y="1306" width="17" height="18" as="geometry"/>
                </mxCell>
                <mxCell id="ZzCnzDDglhMk52raE2Vz-90" value="1" style="text;html=1;align=center;verticalAlign=middle;resizable=0;points=[];autosize=1;strokeColor=none;fillColor=none;" parent="1" vertex="1">
                    <mxGeometry x="282" y="1306" width="17" height="18" as="geometry"/>
                </mxCell>
                <mxCell id="ZzCnzDDglhMk52raE2Vz-91" value="2" style="text;html=1;align=center;verticalAlign=middle;resizable=0;points=[];autosize=1;strokeColor=none;fillColor=none;" parent="1" vertex="1">
                    <mxGeometry x="351" y="1306" width="17" height="18" as="geometry"/>
                </mxCell>
                <mxCell id="ZzCnzDDglhMk52raE2Vz-92" style="edgeStyle=orthogonalEdgeStyle;rounded=0;orthogonalLoop=1;jettySize=auto;html=1;entryX=0.5;entryY=0;entryDx=0;entryDy=0;strokeColor=default;exitX=0.5;exitY=0;exitDx=0;exitDy=0;" parent="1" source="ZzCnzDDglhMk52raE2Vz-94" target="ZzCnzDDglhMk52raE2Vz-85" edge="1">
                    <mxGeometry relative="1" as="geometry">
                        <Array as="points">
                            <mxPoint x="426" y="1293"/>
                            <mxPoint x="310" y="1293"/>
                        </Array>
                    </mxGeometry>
                </mxCell>
                <mxCell id="ZzCnzDDglhMk52raE2Vz-112" style="edgeStyle=orthogonalEdgeStyle;rounded=0;orthogonalLoop=1;jettySize=auto;html=1;exitX=0.25;exitY=0;exitDx=0;exitDy=0;entryX=0.5;entryY=0;entryDx=0;entryDy=0;strokeColor=default;" parent="1" source="ZzCnzDDglhMk52raE2Vz-94" target="ZzCnzDDglhMk52raE2Vz-88" edge="1">
                    <mxGeometry relative="1" as="geometry">
                        <Array as="points">
                            <mxPoint x="412" y="1308"/>
                            <mxPoint x="378" y="1308"/>
                        </Array>
                    </mxGeometry>
                </mxCell>
                <mxCell id="ZzCnzDDglhMk52raE2Vz-94" value="iNode1:2&lt;br&gt;iNode2:1&lt;br&gt;......" style="rounded=0;whiteSpace=wrap;html=1;fillColor=#fff2cc;strokeColor=#d6b656;" parent="1" vertex="1">
                    <mxGeometry x="398" y="1330" width="57" height="50" as="geometry"/>
                </mxCell>
                <mxCell id="ZzCnzDDglhMk52raE2Vz-95" value="iMap0" style="text;html=1;align=center;verticalAlign=middle;resizable=0;points=[];autosize=1;strokeColor=none;fillColor=none;" parent="1" vertex="1">
                    <mxGeometry x="402" y="1383" width="43" height="18" as="geometry"/>
                </mxCell>
                <mxCell id="ZzCnzDDglhMk52raE2Vz-96" value="D3" style="rounded=0;whiteSpace=wrap;html=1;fillColor=#dae8fc;strokeColor=#6c8ebf;" parent="1" vertex="1">
                    <mxGeometry x="455" y="1330" width="30" height="50" as="geometry"/>
                </mxCell>
                <mxCell id="ZzCnzDDglhMk52raE2Vz-97" style="edgeStyle=orthogonalEdgeStyle;rounded=0;orthogonalLoop=1;jettySize=auto;html=1;entryX=0.75;entryY=1;entryDx=0;entryDy=0;exitX=0.5;exitY=1;exitDx=0;exitDy=0;" parent="1" source="ZzCnzDDglhMk52raE2Vz-98" target="ZzCnzDDglhMk52raE2Vz-96" edge="1">
                    <mxGeometry relative="1" as="geometry">
                        <Array as="points">
                            <mxPoint x="505" y="1400"/>
                            <mxPoint x="478" y="1400"/>
                        </Array>
                    </mxGeometry>
                </mxCell>
                <mxCell id="ZzCnzDDglhMk52raE2Vz-98" value="iNode3" style="rounded=0;whiteSpace=wrap;html=1;fillColor=#d5e8d4;strokeColor=#82b366;" parent="1" vertex="1">
                    <mxGeometry x="485" y="1330" width="39" height="50" as="geometry"/>
                </mxCell>
                <mxCell id="ZzCnzDDglhMk52raE2Vz-99" value="D4" style="rounded=0;whiteSpace=wrap;html=1;fillColor=#dae8fc;strokeColor=#6c8ebf;" parent="1" vertex="1">
                    <mxGeometry x="524" y="1330" width="30" height="50" as="geometry"/>
                </mxCell>
                <mxCell id="ZzCnzDDglhMk52raE2Vz-100" style="edgeStyle=orthogonalEdgeStyle;rounded=0;orthogonalLoop=1;jettySize=auto;html=1;entryX=0.75;entryY=1;entryDx=0;entryDy=0;exitX=0.5;exitY=1;exitDx=0;exitDy=0;" parent="1" source="ZzCnzDDglhMk52raE2Vz-101" target="ZzCnzDDglhMk52raE2Vz-99" edge="1">
                    <mxGeometry relative="1" as="geometry">
                        <Array as="points">
                            <mxPoint x="574" y="1400"/>
                            <mxPoint x="547" y="1400"/>
                        </Array>
                    </mxGeometry>
                </mxCell>
                <mxCell id="ZzCnzDDglhMk52raE2Vz-101" value="iNode4" style="rounded=0;whiteSpace=wrap;html=1;fillColor=#d5e8d4;strokeColor=#82b366;" parent="1" vertex="1">
                    <mxGeometry x="554" y="1330" width="39" height="50" as="geometry"/>
                </mxCell>
                <mxCell id="ZzCnzDDglhMk52raE2Vz-102" value="3" style="text;html=1;align=center;verticalAlign=middle;resizable=0;points=[];autosize=1;strokeColor=none;fillColor=none;" parent="1" vertex="1">
                    <mxGeometry x="477" y="1306" width="17" height="18" as="geometry"/>
                </mxCell>
                <mxCell id="ZzCnzDDglhMk52raE2Vz-103" value="4" style="text;html=1;align=center;verticalAlign=middle;resizable=0;points=[];autosize=1;strokeColor=none;fillColor=none;" parent="1" vertex="1">
                    <mxGeometry x="546" y="1306" width="17" height="18" as="geometry"/>
                </mxCell>
                <mxCell id="ZzCnzDDglhMk52raE2Vz-104" style="edgeStyle=orthogonalEdgeStyle;rounded=0;orthogonalLoop=1;jettySize=auto;html=1;entryX=0.5;entryY=0;entryDx=0;entryDy=0;strokeColor=default;" parent="1" source="ZzCnzDDglhMk52raE2Vz-106" target="ZzCnzDDglhMk52raE2Vz-98" edge="1">
                    <mxGeometry relative="1" as="geometry">
                        <Array as="points">
                            <mxPoint x="638" y="1293"/>
                            <mxPoint x="505" y="1293"/>
                        </Array>
                    </mxGeometry>
                </mxCell>
                <mxCell id="ZzCnzDDglhMk52raE2Vz-105" style="edgeStyle=orthogonalEdgeStyle;rounded=0;orthogonalLoop=1;jettySize=auto;html=1;exitX=0.5;exitY=0;exitDx=0;exitDy=0;entryX=0.5;entryY=0;entryDx=0;entryDy=0;strokeColor=default;" parent="1" source="ZzCnzDDglhMk52raE2Vz-106" target="ZzCnzDDglhMk52raE2Vz-101" edge="1">
                    <mxGeometry relative="1" as="geometry">
                        <Array as="points">
                            <mxPoint x="622" y="1301"/>
                            <mxPoint x="573" y="1301"/>
                            <mxPoint x="573" y="1307"/>
                        </Array>
                    </mxGeometry>
                </mxCell>
                <mxCell id="ZzCnzDDglhMk52raE2Vz-106" value="iNode3:4&lt;br&gt;iNode4:3&lt;br&gt;......" style="rounded=0;whiteSpace=wrap;html=1;fillColor=#fff2cc;strokeColor=#d6b656;" parent="1" vertex="1">
                    <mxGeometry x="593" y="1330" width="57" height="50" as="geometry"/>
                </mxCell>
                <mxCell id="ZzCnzDDglhMk52raE2Vz-107" value="iMap1" style="text;html=1;align=center;verticalAlign=middle;resizable=0;points=[];autosize=1;strokeColor=none;fillColor=none;" parent="1" vertex="1">
                    <mxGeometry x="597" y="1383" width="43" height="18" as="geometry"/>
                </mxCell>
                <mxCell id="ZzCnzDDglhMk52raE2Vz-110" style="edgeStyle=orthogonalEdgeStyle;rounded=0;orthogonalLoop=1;jettySize=auto;html=1;entryX=1;entryY=0.5;entryDx=0;entryDy=0;strokeColor=default;exitX=0.75;exitY=1;exitDx=0;exitDy=0;" parent="1" source="ZzCnzDDglhMk52raE2Vz-108" target="ZzCnzDDglhMk52raE2Vz-106" edge="1">
                    <mxGeometry relative="1" as="geometry"/>
                </mxCell>
                <mxCell id="ZzCnzDDglhMk52raE2Vz-111" style="edgeStyle=orthogonalEdgeStyle;rounded=0;orthogonalLoop=1;jettySize=auto;html=1;strokeColor=default;entryX=0.75;entryY=0;entryDx=0;entryDy=0;" parent="1" source="ZzCnzDDglhMk52raE2Vz-108" target="ZzCnzDDglhMk52raE2Vz-94" edge="1">
                    <mxGeometry relative="1" as="geometry">
                        <mxPoint x="471.5999999999999" y="1276.4" as="targetPoint"/>
                    </mxGeometry>
                </mxCell>
                <mxCell id="ZzCnzDDglhMk52raE2Vz-108" value="iNode[0-99]:iMap0&lt;br&gt;iNode[100-199]:iMap1&lt;br&gt;........." style="rounded=0;whiteSpace=wrap;html=1;fillColor=#e1d5e7;strokeColor=#9673a6;" parent="1" vertex="1">
                    <mxGeometry x="524" y="1176" width="132" height="60" as="geometry"/>
                </mxCell>
                <mxCell id="ZzCnzDDglhMk52raE2Vz-109" value="CK" style="text;html=1;align=center;verticalAlign=middle;resizable=0;points=[];autosize=1;strokeColor=none;fillColor=none;" parent="1" vertex="1">
                    <mxGeometry x="656" y="1197" width="27" height="18" as="geometry"/>
                </mxCell>
                <mxCell id="ZzCnzDDglhMk52raE2Vz-115" value="" style="edgeStyle=orthogonalEdgeStyle;rounded=0;orthogonalLoop=1;jettySize=auto;html=1;strokeColor=default;" parent="1" source="ZzCnzDDglhMk52raE2Vz-113" target="ZzCnzDDglhMk52raE2Vz-114" edge="1">
                    <mxGeometry relative="1" as="geometry"/>
                </mxCell>
                <mxCell id="ZzCnzDDglhMk52raE2Vz-113" value="B" style="ellipse;whiteSpace=wrap;html=1;aspect=fixed;fillColor=#f8cecc;strokeColor=#b85450;" parent="1" vertex="1">
                    <mxGeometry x="732" y="240" width="58" height="58" as="geometry"/>
                </mxCell>
                <mxCell id="ZzCnzDDglhMk52raE2Vz-117" value="" style="edgeStyle=orthogonalEdgeStyle;rounded=0;orthogonalLoop=1;jettySize=auto;html=1;strokeColor=default;" parent="1" source="ZzCnzDDglhMk52raE2Vz-114" target="ZzCnzDDglhMk52raE2Vz-116" edge="1">
                    <mxGeometry relative="1" as="geometry"/>
                </mxCell>
                <mxCell id="ZzCnzDDglhMk52raE2Vz-120" style="edgeStyle=orthogonalEdgeStyle;rounded=0;orthogonalLoop=1;jettySize=auto;html=1;entryX=1;entryY=0.5;entryDx=0;entryDy=0;strokeColor=default;" parent="1" source="ZzCnzDDglhMk52raE2Vz-114" target="ZzCnzDDglhMk52raE2Vz-113" edge="1">
                    <mxGeometry relative="1" as="geometry"/>
                </mxCell>
                <mxCell id="ZzCnzDDglhMk52raE2Vz-114" value="C" style="ellipse;whiteSpace=wrap;html=1;aspect=fixed;fillColor=#f8cecc;strokeColor=#b85450;" parent="1" vertex="1">
                    <mxGeometry x="870" y="240" width="58" height="58" as="geometry"/>
                </mxCell>
                <mxCell id="ZzCnzDDglhMk52raE2Vz-119" value="" style="edgeStyle=orthogonalEdgeStyle;rounded=0;orthogonalLoop=1;jettySize=auto;html=1;strokeColor=default;" parent="1" source="ZzCnzDDglhMk52raE2Vz-116" target="ZzCnzDDglhMk52raE2Vz-118" edge="1">
                    <mxGeometry relative="1" as="geometry"/>
                </mxCell>
                <mxCell id="ZzCnzDDglhMk52raE2Vz-121" style="edgeStyle=orthogonalEdgeStyle;rounded=0;orthogonalLoop=1;jettySize=auto;html=1;entryX=1;entryY=0.5;entryDx=0;entryDy=0;strokeColor=default;" parent="1" source="ZzCnzDDglhMk52raE2Vz-116" target="ZzCnzDDglhMk52raE2Vz-114" edge="1">
                    <mxGeometry relative="1" as="geometry"/>
                </mxCell>
                <mxCell id="ZzCnzDDglhMk52raE2Vz-116" value="D" style="ellipse;whiteSpace=wrap;html=1;aspect=fixed;fillColor=#dae8fc;strokeColor=#6c8ebf;" parent="1" vertex="1">
                    <mxGeometry x="1008" y="240" width="58" height="58" as="geometry"/>
                </mxCell>
                <mxCell id="ZzCnzDDglhMk52raE2Vz-122" style="edgeStyle=orthogonalEdgeStyle;rounded=0;orthogonalLoop=1;jettySize=auto;html=1;strokeColor=default;" parent="1" source="ZzCnzDDglhMk52raE2Vz-118" target="ZzCnzDDglhMk52raE2Vz-116" edge="1">
                    <mxGeometry relative="1" as="geometry"/>
                </mxCell>
                <mxCell id="ZzCnzDDglhMk52raE2Vz-118" value="E" style="ellipse;whiteSpace=wrap;html=1;aspect=fixed;fillColor=#f8cecc;strokeColor=#b85450;" parent="1" vertex="1">
                    <mxGeometry x="1146" y="240" width="58" height="58" as="geometry"/>
                </mxCell>
                <mxCell id="ZzCnzDDglhMk52raE2Vz-123" value="" style="curved=1;endArrow=classic;html=1;rounded=0;strokeColor=#FF6666;exitX=0.5;exitY=1;exitDx=0;exitDy=0;entryX=0.5;entryY=1;entryDx=0;entryDy=0;" parent="1" source="ZzCnzDDglhMk52raE2Vz-114" target="ZzCnzDDglhMk52raE2Vz-118" edge="1">
                    <mxGeometry width="50" height="50" relative="1" as="geometry">
                        <mxPoint x="1063" y="389" as="sourcePoint"/>
                        <mxPoint x="1113" y="339" as="targetPoint"/>
                        <Array as="points">
                            <mxPoint x="964" y="322"/>
                            <mxPoint x="1038" y="334"/>
                            <mxPoint x="1116" y="322"/>
                        </Array>
                    </mxGeometry>
                </mxCell>
                <mxCell id="ZzCnzDDglhMk52raE2Vz-124" value="1" style="edgeLabel;html=1;align=center;verticalAlign=middle;resizable=0;points=[];" parent="ZzCnzDDglhMk52raE2Vz-123" vertex="1" connectable="0">
                    <mxGeometry x="0.17" y="1" relative="1" as="geometry">
                        <mxPoint x="-24" y="3" as="offset"/>
                    </mxGeometry>
                </mxCell>
                <mxCell id="ZzCnzDDglhMk52raE2Vz-125" value="2" style="curved=1;endArrow=classic;html=1;rounded=0;strokeColor=#FF6666;entryX=0.5;entryY=0;entryDx=0;entryDy=0;exitX=0.5;exitY=0;exitDx=0;exitDy=0;" parent="1" source="ZzCnzDDglhMk52raE2Vz-118" target="ZzCnzDDglhMk52raE2Vz-114" edge="1">
                    <mxGeometry x="-0.0329" y="4" width="50" height="50" relative="1" as="geometry">
                        <mxPoint x="1050" y="208" as="sourcePoint"/>
                        <mxPoint x="1100" y="158" as="targetPoint"/>
                        <Array as="points">
                            <mxPoint x="1126" y="219"/>
                            <mxPoint x="1041" y="207"/>
                            <mxPoint x="954" y="216"/>
                        </Array>
                        <mxPoint as="offset"/>
                    </mxGeometry>
                </mxCell>
                <mxCell id="ZzCnzDDglhMk52raE2Vz-126" value="D1" style="rounded=0;whiteSpace=wrap;html=1;fillColor=#dae8fc;strokeColor=#6c8ebf;" parent="1" vertex="1">
                    <mxGeometry x="145.5" y="1549.96" width="30" height="50" as="geometry"/>
                </mxCell>
                <mxCell id="ZzCnzDDglhMk52raE2Vz-127" style="edgeStyle=orthogonalEdgeStyle;rounded=0;orthogonalLoop=1;jettySize=auto;html=1;entryX=0.75;entryY=1;entryDx=0;entryDy=0;exitX=0.5;exitY=1;exitDx=0;exitDy=0;" parent="1" source="ZzCnzDDglhMk52raE2Vz-128" target="ZzCnzDDglhMk52raE2Vz-126" edge="1">
                    <mxGeometry relative="1" as="geometry">
                        <Array as="points">
                            <mxPoint x="195.5" y="1619.96"/>
                            <mxPoint x="168.5" y="1619.96"/>
                        </Array>
                    </mxGeometry>
                </mxCell>
                <mxCell id="ZzCnzDDglhMk52raE2Vz-128" value="iNode1" style="rounded=0;whiteSpace=wrap;html=1;fillColor=#d5e8d4;strokeColor=#82b366;" parent="1" vertex="1">
                    <mxGeometry x="175.5" y="1549.96" width="39" height="50" as="geometry"/>
                </mxCell>
                <mxCell id="ZzCnzDDglhMk52raE2Vz-129" value="D2" style="rounded=0;whiteSpace=wrap;html=1;fillColor=#dae8fc;strokeColor=#6c8ebf;" parent="1" vertex="1">
                    <mxGeometry x="271.5" y="1549.96" width="30" height="50" as="geometry"/>
                </mxCell>
                <mxCell id="ZzCnzDDglhMk52raE2Vz-130" style="edgeStyle=orthogonalEdgeStyle;rounded=0;orthogonalLoop=1;jettySize=auto;html=1;entryX=0.75;entryY=1;entryDx=0;entryDy=0;exitX=0.5;exitY=1;exitDx=0;exitDy=0;" parent="1" source="ZzCnzDDglhMk52raE2Vz-131" target="ZzCnzDDglhMk52raE2Vz-129" edge="1">
                    <mxGeometry relative="1" as="geometry">
                        <Array as="points">
                            <mxPoint x="321.5" y="1619.96"/>
                            <mxPoint x="294.5" y="1619.96"/>
                        </Array>
                    </mxGeometry>
                </mxCell>
                <mxCell id="ZzCnzDDglhMk52raE2Vz-131" value="iNode2" style="rounded=0;whiteSpace=wrap;html=1;fillColor=#d5e8d4;strokeColor=#82b366;" parent="1" vertex="1">
                    <mxGeometry x="301.5" y="1549.96" width="39" height="50" as="geometry"/>
                </mxCell>
                <mxCell id="ZzCnzDDglhMk52raE2Vz-132" value="D3" style="rounded=0;whiteSpace=wrap;html=1;fillColor=#dae8fc;strokeColor=#6c8ebf;" parent="1" vertex="1">
                    <mxGeometry x="340.5" y="1549.96" width="30" height="50" as="geometry"/>
                </mxCell>
                <mxCell id="ZzCnzDDglhMk52raE2Vz-133" style="edgeStyle=orthogonalEdgeStyle;rounded=0;orthogonalLoop=1;jettySize=auto;html=1;entryX=0.75;entryY=1;entryDx=0;entryDy=0;exitX=0.5;exitY=1;exitDx=0;exitDy=0;" parent="1" source="ZzCnzDDglhMk52raE2Vz-134" target="ZzCnzDDglhMk52raE2Vz-132" edge="1">
                    <mxGeometry relative="1" as="geometry">
                        <Array as="points">
                            <mxPoint x="390.5" y="1619.96"/>
                            <mxPoint x="363.5" y="1619.96"/>
                        </Array>
                    </mxGeometry>
                </mxCell>
                <mxCell id="ZzCnzDDglhMk52raE2Vz-134" value="iNode1" style="rounded=0;whiteSpace=wrap;html=1;fillColor=#d5e8d4;strokeColor=#82b366;" parent="1" vertex="1">
                    <mxGeometry x="370.5" y="1549.96" width="39" height="50" as="geometry"/>
                </mxCell>
                <mxCell id="ZzCnzDDglhMk52raE2Vz-135" value="0" style="text;html=1;align=center;verticalAlign=middle;resizable=0;points=[];autosize=1;strokeColor=none;fillColor=none;" parent="1" vertex="1">
                    <mxGeometry x="166.5" y="1525.96" width="17" height="18" as="geometry"/>
                </mxCell>
                <mxCell id="ZzCnzDDglhMk52raE2Vz-136" value="1" style="text;html=1;align=center;verticalAlign=middle;resizable=0;points=[];autosize=1;strokeColor=none;fillColor=none;" parent="1" vertex="1">
                    <mxGeometry x="293.5" y="1525.96" width="17" height="18" as="geometry"/>
                </mxCell>
                <mxCell id="ZzCnzDDglhMk52raE2Vz-137" value="2" style="text;html=1;align=center;verticalAlign=middle;resizable=0;points=[];autosize=1;strokeColor=none;fillColor=none;" parent="1" vertex="1">
                    <mxGeometry x="362.5" y="1525.96" width="17" height="18" as="geometry"/>
                </mxCell>
                <mxCell id="ZzCnzDDglhMk52raE2Vz-138" style="edgeStyle=orthogonalEdgeStyle;rounded=0;orthogonalLoop=1;jettySize=auto;html=1;entryX=0.5;entryY=0;entryDx=0;entryDy=0;strokeColor=default;" parent="1" source="ZzCnzDDglhMk52raE2Vz-140" target="ZzCnzDDglhMk52raE2Vz-131" edge="1">
                    <mxGeometry relative="1" as="geometry">
                        <Array as="points">
                            <mxPoint x="454" y="1516"/>
                            <mxPoint x="321" y="1516"/>
                        </Array>
                    </mxGeometry>
                </mxCell>
                <mxCell id="ZzCnzDDglhMk52raE2Vz-139" style="edgeStyle=orthogonalEdgeStyle;rounded=0;orthogonalLoop=1;jettySize=auto;html=1;exitX=0.5;exitY=0;exitDx=0;exitDy=0;entryX=0.5;entryY=0;entryDx=0;entryDy=0;strokeColor=default;" parent="1" source="ZzCnzDDglhMk52raE2Vz-140" target="ZzCnzDDglhMk52raE2Vz-134" edge="1">
                    <mxGeometry relative="1" as="geometry">
                        <Array as="points">
                            <mxPoint x="438" y="1531"/>
                            <mxPoint x="390" y="1531"/>
                        </Array>
                    </mxGeometry>
                </mxCell>
                <mxCell id="ZzCnzDDglhMk52raE2Vz-140" value="iNode1:2&lt;br&gt;iNode2:1&lt;br&gt;......" style="rounded=0;whiteSpace=wrap;html=1;fillColor=#fff2cc;strokeColor=#d6b656;" parent="1" vertex="1">
                    <mxGeometry x="409.5" y="1549.96" width="57" height="50" as="geometry"/>
                </mxCell>
                <mxCell id="ZzCnzDDglhMk52raE2Vz-142" value="V1" style="text;html=1;align=center;verticalAlign=middle;resizable=0;points=[];autosize=1;strokeColor=none;fillColor=none;" parent="1" vertex="1">
                    <mxGeometry x="155.75" y="1632" width="25" height="18" as="geometry"/>
                </mxCell>
                <mxCell id="ZzCnzDDglhMk52raE2Vz-144" value="V2" style="text;html=1;align=center;verticalAlign=middle;resizable=0;points=[];autosize=1;strokeColor=none;fillColor=none;" parent="1" vertex="1">
                    <mxGeometry x="359" y="1632" width="25" height="18" as="geometry"/>
                </mxCell>
                <mxCell id="ZzCnzDDglhMk52raE2Vz-145" value="multiple version" style="text;html=1;align=center;verticalAlign=middle;resizable=0;points=[];autosize=1;strokeColor=none;fillColor=none;" parent="1" vertex="1">
                    <mxGeometry x="236" y="1460" width="93" height="18" as="geometry"/>
                </mxCell>
                <mxCell id="ZzCnzDDglhMk52raE2Vz-146" value="" style="endArrow=classic;html=1;rounded=0;strokeColor=#FF6666;exitX=0.22;exitY=1.156;exitDx=0;exitDy=0;exitPerimeter=0;entryX=0.75;entryY=0;entryDx=0;entryDy=0;" parent="1" source="ZzCnzDDglhMk52raE2Vz-145" target="ZzCnzDDglhMk52raE2Vz-141" edge="1">
                    <mxGeometry width="50" height="50" relative="1" as="geometry">
                        <mxPoint x="175" y="1482" as="sourcePoint"/>
                        <mxPoint x="218" y="1516" as="targetPoint"/>
                    </mxGeometry>
                </mxCell>
                <mxCell id="ZzCnzDDglhMk52raE2Vz-147" value="" style="endArrow=classic;html=1;rounded=0;strokeColor=#FF6666;entryX=0.065;entryY=0.002;entryDx=0;entryDy=0;entryPerimeter=0;" parent="1" source="ZzCnzDDglhMk52raE2Vz-145" target="ZzCnzDDglhMk52raE2Vz-137" edge="1">
                    <mxGeometry width="50" height="50" relative="1" as="geometry">
                        <mxPoint x="359.00000000000006" y="1478.9980000000003" as="sourcePoint"/>
                        <mxPoint x="303.04" y="1516.19" as="targetPoint"/>
                    </mxGeometry>
                </mxCell>
                <mxCell id="ZzCnzDDglhMk52raE2Vz-149" style="edgeStyle=orthogonalEdgeStyle;rounded=0;orthogonalLoop=1;jettySize=auto;html=1;entryX=0.5;entryY=0;entryDx=0;entryDy=0;strokeColor=#000000;" parent="1" source="ZzCnzDDglhMk52raE2Vz-148" target="ZzCnzDDglhMk52raE2Vz-128" edge="1">
                    <mxGeometry relative="1" as="geometry">
                        <Array as="points">
                            <mxPoint x="243" y="1530"/>
                            <mxPoint x="195" y="1530"/>
                        </Array>
                    </mxGeometry>
                </mxCell>
                <mxCell id="ZzCnzDDglhMk52raE2Vz-148" value="iNode1:0&lt;br&gt;......" style="rounded=0;whiteSpace=wrap;html=1;fillColor=#fff2cc;strokeColor=#d6b656;" parent="1" vertex="1">
                    <mxGeometry x="214.5" y="1549.96" width="57" height="50" as="geometry"/>
                </mxCell>
                <mxCell id="ZzCnzDDglhMk52raE2Vz-150" value="" style="rounded=0;whiteSpace=wrap;html=1;fillColor=#f5f5f5;fontColor=#333333;strokeColor=#666666;dashed=1;" parent="1" vertex="1">
                    <mxGeometry x="330.38" y="2024.96" width="70.5" height="103" as="geometry"/>
                </mxCell>
                <mxCell id="ZzCnzDDglhMk52raE2Vz-151" value="" style="rounded=0;whiteSpace=wrap;html=1;fillColor=#f5f5f5;fontColor=#333333;strokeColor=#666666;dashed=1;" parent="1" vertex="1">
                    <mxGeometry x="111.88" y="2024.96" width="92.5" height="103" as="geometry"/>
                </mxCell>
                <mxCell id="ZzCnzDDglhMk52raE2Vz-152" value="D1" style="rounded=0;whiteSpace=wrap;html=1;fillColor=#dae8fc;strokeColor=#6c8ebf;" parent="1" vertex="1">
                    <mxGeometry x="135.38" y="2048.96" width="30" height="50" as="geometry"/>
                </mxCell>
                <mxCell id="ZzCnzDDglhMk52raE2Vz-153" style="edgeStyle=orthogonalEdgeStyle;rounded=0;orthogonalLoop=1;jettySize=auto;html=1;entryX=0.75;entryY=1;entryDx=0;entryDy=0;exitX=0.5;exitY=1;exitDx=0;exitDy=0;" parent="1" source="ZzCnzDDglhMk52raE2Vz-154" target="ZzCnzDDglhMk52raE2Vz-152" edge="1">
                    <mxGeometry relative="1" as="geometry">
                        <Array as="points">
                            <mxPoint x="185.38" y="2118.96"/>
                            <mxPoint x="158.38" y="2118.96"/>
                        </Array>
                    </mxGeometry>
                </mxCell>
                <mxCell id="ZzCnzDDglhMk52raE2Vz-154" value="iNode1" style="rounded=0;whiteSpace=wrap;html=1;fillColor=#d5e8d4;strokeColor=#82b366;" parent="1" vertex="1">
                    <mxGeometry x="165.38" y="2048.96" width="39" height="50" as="geometry"/>
                </mxCell>
                <mxCell id="ZzCnzDDglhMk52raE2Vz-155" value="D2" style="rounded=0;whiteSpace=wrap;html=1;fillColor=#dae8fc;strokeColor=#6c8ebf;" parent="1" vertex="1">
                    <mxGeometry x="261.38" y="2048.96" width="30" height="50" as="geometry"/>
                </mxCell>
                <mxCell id="ZzCnzDDglhMk52raE2Vz-156" style="edgeStyle=orthogonalEdgeStyle;rounded=0;orthogonalLoop=1;jettySize=auto;html=1;entryX=0.75;entryY=1;entryDx=0;entryDy=0;exitX=0.5;exitY=1;exitDx=0;exitDy=0;" parent="1" source="ZzCnzDDglhMk52raE2Vz-157" target="ZzCnzDDglhMk52raE2Vz-155" edge="1">
                    <mxGeometry relative="1" as="geometry">
                        <Array as="points">
                            <mxPoint x="311.38" y="2118.96"/>
                            <mxPoint x="284.38" y="2118.96"/>
                        </Array>
                    </mxGeometry>
                </mxCell>
                <mxCell id="ZzCnzDDglhMk52raE2Vz-157" value="iNode2" style="rounded=0;whiteSpace=wrap;html=1;fillColor=#d5e8d4;strokeColor=#82b366;" parent="1" vertex="1">
                    <mxGeometry x="291.38" y="2048.96" width="39" height="50" as="geometry"/>
                </mxCell>
                <mxCell id="ZzCnzDDglhMk52raE2Vz-158" value="D3" style="rounded=0;whiteSpace=wrap;html=1;fillColor=#dae8fc;strokeColor=#6c8ebf;" parent="1" vertex="1">
                    <mxGeometry x="330.38" y="2048.96" width="30" height="50" as="geometry"/>
                </mxCell>
                <mxCell id="ZzCnzDDglhMk52raE2Vz-159" style="edgeStyle=orthogonalEdgeStyle;rounded=0;orthogonalLoop=1;jettySize=auto;html=1;entryX=0.75;entryY=1;entryDx=0;entryDy=0;exitX=0.5;exitY=1;exitDx=0;exitDy=0;" parent="1" source="ZzCnzDDglhMk52raE2Vz-160" target="ZzCnzDDglhMk52raE2Vz-158" edge="1">
                    <mxGeometry relative="1" as="geometry">
                        <Array as="points">
                            <mxPoint x="380.38" y="2118.96"/>
                            <mxPoint x="353.38" y="2118.96"/>
                        </Array>
                    </mxGeometry>
                </mxCell>
                <mxCell id="ZzCnzDDglhMk52raE2Vz-160" value="iNode1" style="rounded=0;whiteSpace=wrap;html=1;fillColor=#d5e8d4;strokeColor=#82b366;" parent="1" vertex="1">
                    <mxGeometry x="360.38" y="2048.96" width="39" height="50" as="geometry"/>
                </mxCell>
                <mxCell id="ZzCnzDDglhMk52raE2Vz-161" value="0" style="text;html=1;align=center;verticalAlign=middle;resizable=0;points=[];autosize=1;strokeColor=none;fillColor=none;" parent="1" vertex="1">
                    <mxGeometry x="156.38" y="2024.96" width="17" height="18" as="geometry"/>
                </mxCell>
                <mxCell id="ZzCnzDDglhMk52raE2Vz-162" value="1" style="text;html=1;align=center;verticalAlign=middle;resizable=0;points=[];autosize=1;strokeColor=none;fillColor=none;" parent="1" vertex="1">
                    <mxGeometry x="283.38" y="2024.96" width="17" height="18" as="geometry"/>
                </mxCell>
                <mxCell id="ZzCnzDDglhMk52raE2Vz-163" value="2" style="text;html=1;align=center;verticalAlign=middle;resizable=0;points=[];autosize=1;strokeColor=none;fillColor=none;" parent="1" vertex="1">
                    <mxGeometry x="352.38" y="2024.96" width="17" height="18" as="geometry"/>
                </mxCell>
                <mxCell id="ZzCnzDDglhMk52raE2Vz-164" style="edgeStyle=orthogonalEdgeStyle;rounded=0;orthogonalLoop=1;jettySize=auto;html=1;entryX=0.5;entryY=0;entryDx=0;entryDy=0;strokeColor=default;" parent="1" source="ZzCnzDDglhMk52raE2Vz-166" target="ZzCnzDDglhMk52raE2Vz-157" edge="1">
                    <mxGeometry relative="1" as="geometry">
                        <Array as="points">
                            <mxPoint x="443.88" y="2015"/>
                            <mxPoint x="310.88" y="2015"/>
                        </Array>
                    </mxGeometry>
                </mxCell>
                <mxCell id="ZzCnzDDglhMk52raE2Vz-165" style="edgeStyle=orthogonalEdgeStyle;rounded=0;orthogonalLoop=1;jettySize=auto;html=1;exitX=0.5;exitY=0;exitDx=0;exitDy=0;entryX=0.5;entryY=0;entryDx=0;entryDy=0;strokeColor=default;" parent="1" source="ZzCnzDDglhMk52raE2Vz-166" target="ZzCnzDDglhMk52raE2Vz-160" edge="1">
                    <mxGeometry relative="1" as="geometry">
                        <Array as="points">
                            <mxPoint x="427.88" y="2030"/>
                            <mxPoint x="379.88" y="2030"/>
                        </Array>
                    </mxGeometry>
                </mxCell>
                <mxCell id="ZzCnzDDglhMk52raE2Vz-166" value="iNode1:2&lt;br&gt;iNode2:1&lt;br&gt;......" style="rounded=0;whiteSpace=wrap;html=1;fillColor=#fff2cc;strokeColor=#d6b656;" parent="1" vertex="1">
                    <mxGeometry x="399.38" y="2048.96" width="57" height="50" as="geometry"/>
                </mxCell>
                <mxCell id="ZzCnzDDglhMk52raE2Vz-167" value="V1" style="text;html=1;align=center;verticalAlign=middle;resizable=0;points=[];autosize=1;strokeColor=none;fillColor=none;" parent="1" vertex="1">
                    <mxGeometry x="145.63" y="2131" width="25" height="18" as="geometry"/>
                </mxCell>
                <mxCell id="ZzCnzDDglhMk52raE2Vz-168" value="V2" style="text;html=1;align=center;verticalAlign=middle;resizable=0;points=[];autosize=1;strokeColor=none;fillColor=none;" parent="1" vertex="1">
                    <mxGeometry x="348.88" y="2131" width="25" height="18" as="geometry"/>
                </mxCell>
                <mxCell id="ZzCnzDDglhMk52raE2Vz-169" value="multiple version" style="text;html=1;align=center;verticalAlign=middle;resizable=0;points=[];autosize=1;strokeColor=none;fillColor=none;" parent="1" vertex="1">
                    <mxGeometry x="215" y="2165" width="93" height="18" as="geometry"/>
                </mxCell>
                <mxCell id="ZzCnzDDglhMk52raE2Vz-170" value="" style="endArrow=classic;html=1;rounded=0;strokeColor=#FF6666;exitX=0.303;exitY=-0.1;exitDx=0;exitDy=0;exitPerimeter=0;entryX=0.75;entryY=1;entryDx=0;entryDy=0;" parent="1" source="ZzCnzDDglhMk52raE2Vz-169" target="ZzCnzDDglhMk52raE2Vz-151" edge="1">
                    <mxGeometry width="50" height="50" relative="1" as="geometry">
                        <mxPoint x="164.88" y="1981" as="sourcePoint"/>
                        <mxPoint x="207.88" y="2015" as="targetPoint"/>
                    </mxGeometry>
                </mxCell>
                <mxCell id="ZzCnzDDglhMk52raE2Vz-171" value="" style="endArrow=classic;html=1;rounded=0;strokeColor=#FF6666;entryX=0.25;entryY=1;entryDx=0;entryDy=0;" parent="1" source="ZzCnzDDglhMk52raE2Vz-169" target="ZzCnzDDglhMk52raE2Vz-150" edge="1">
                    <mxGeometry width="50" height="50" relative="1" as="geometry">
                        <mxPoint x="348.88000000000005" y="1977.9980000000003" as="sourcePoint"/>
                        <mxPoint x="292.92" y="2015.19" as="targetPoint"/>
                    </mxGeometry>
                </mxCell>
                <mxCell id="ZzCnzDDglhMk52raE2Vz-172" style="edgeStyle=orthogonalEdgeStyle;rounded=0;orthogonalLoop=1;jettySize=auto;html=1;entryX=0.5;entryY=0;entryDx=0;entryDy=0;strokeColor=#000000;" parent="1" source="ZzCnzDDglhMk52raE2Vz-173" target="ZzCnzDDglhMk52raE2Vz-154" edge="1">
                    <mxGeometry relative="1" as="geometry">
                        <Array as="points">
                            <mxPoint x="232.88" y="2029"/>
                            <mxPoint x="184.88" y="2029"/>
                        </Array>
                    </mxGeometry>
                </mxCell>
                <mxCell id="ZzCnzDDglhMk52raE2Vz-173" value="iNode1:0&lt;br&gt;......" style="rounded=0;whiteSpace=wrap;html=1;fillColor=#fff2cc;strokeColor=#d6b656;" parent="1" vertex="1">
                    <mxGeometry x="204.38" y="2048.96" width="57" height="50" as="geometry"/>
                </mxCell>
                <mxCell id="ZzCnzDDglhMk52raE2Vz-180" style="edgeStyle=orthogonalEdgeStyle;rounded=0;orthogonalLoop=1;jettySize=auto;html=1;entryX=0.75;entryY=0;entryDx=0;entryDy=0;strokeColor=#000000;exitX=0.25;exitY=1;exitDx=0;exitDy=0;" parent="1" source="ZzCnzDDglhMk52raE2Vz-176" target="ZzCnzDDglhMk52raE2Vz-173" edge="1">
                    <mxGeometry relative="1" as="geometry"/>
                </mxCell>
                <mxCell id="ZzCnzDDglhMk52raE2Vz-176" value="iNode[0-99]:iMap0&lt;br&gt;..." style="rounded=0;whiteSpace=wrap;html=1;fillColor=#e1d5e7;strokeColor=#9673a6;" parent="1" vertex="1">
                    <mxGeometry x="217.19" y="1906" width="120" height="60" as="geometry"/>
                </mxCell>
                <mxCell id="ZzCnzDDglhMk52raE2Vz-177" value="CK snapshot" style="text;html=1;align=center;verticalAlign=middle;resizable=0;points=[];autosize=1;strokeColor=none;fillColor=none;" parent="1" vertex="1">
                    <mxGeometry x="237.69" y="1881" width="79" height="18" as="geometry"/>
                </mxCell>
                <mxCell id="ZzCnzDDglhMk52raE2Vz-178" value="iMap0 v1" style="text;html=1;align=center;verticalAlign=middle;resizable=0;points=[];autosize=1;strokeColor=none;fillColor=none;" parent="1" vertex="1">
                    <mxGeometry x="204.38" y="2103" width="59" height="18" as="geometry"/>
                </mxCell>
                <mxCell id="ZzCnzDDglhMk52raE2Vz-179" value="iMap0 v2" style="text;html=1;align=center;verticalAlign=middle;resizable=0;points=[];autosize=1;strokeColor=none;fillColor=none;" parent="1" vertex="1">
                    <mxGeometry x="399" y="2103" width="59" height="18" as="geometry"/>
                </mxCell>
                <mxCell id="ZzCnzDDglhMk52raE2Vz-184" style="edgeStyle=orthogonalEdgeStyle;rounded=0;orthogonalLoop=1;jettySize=auto;html=1;entryX=1;entryY=0.5;entryDx=0;entryDy=0;strokeColor=#000000;" parent="1" source="ZzCnzDDglhMk52raE2Vz-182" target="ZzCnzDDglhMk52raE2Vz-166" edge="1">
                    <mxGeometry relative="1" as="geometry"/>
                </mxCell>
                <mxCell id="ZzCnzDDglhMk52raE2Vz-182" value="iNode[0-99]:iMap0&lt;br&gt;..." style="rounded=0;whiteSpace=wrap;html=1;fillColor=#f8cecc;strokeColor=#b85450;" parent="1" vertex="1">
                    <mxGeometry x="423.81" y="1906" width="120" height="60" as="geometry"/>
                </mxCell>
                <mxCell id="ZzCnzDDglhMk52raE2Vz-183" value="CK transaction" style="text;html=1;align=center;verticalAlign=middle;resizable=0;points=[];autosize=1;strokeColor=none;fillColor=none;" parent="1" vertex="1">
                    <mxGeometry x="439.31" y="1881" width="89" height="18" as="geometry"/>
                </mxCell>
                <mxCell id="MP5oNKOP9dcL4W_LWbaU-2" value="D.addr" style="rounded=0;whiteSpace=wrap;html=1;fillColor=#dae8fc;strokeColor=#6c8ebf;" parent="1" vertex="1">
                    <mxGeometry x="207.63" y="2486" width="43.38" height="50" as="geometry"/>
                </mxCell>
                <mxCell id="MP5oNKOP9dcL4W_LWbaU-33" style="edgeStyle=orthogonalEdgeStyle;rounded=0;orthogonalLoop=1;jettySize=auto;html=1;exitX=0.25;exitY=1;exitDx=0;exitDy=0;entryX=0.5;entryY=1;entryDx=0;entryDy=0;" parent="1" source="MP5oNKOP9dcL4W_LWbaU-4" target="MP5oNKOP9dcL4W_LWbaU-2" edge="1">
                    <mxGeometry relative="1" as="geometry">
                        <Array as="points">
                            <mxPoint x="263.63" y="2553"/>
                            <mxPoint x="229.63" y="2553"/>
                        </Array>
                    </mxGeometry>
                </mxCell>
                <mxCell id="MP5oNKOP9dcL4W_LWbaU-4" value="iNode1" style="rounded=0;whiteSpace=wrap;html=1;fillColor=#d5e8d4;strokeColor=#82b366;" parent="1" vertex="1">
                    <mxGeometry x="251.01" y="2486" width="49.62" height="50" as="geometry"/>
                </mxCell>
                <mxCell id="MP5oNKOP9dcL4W_LWbaU-9" value="c.next" style="text;html=1;align=center;verticalAlign=middle;resizable=0;points=[];autosize=1;strokeColor=none;fillColor=none;" parent="1" vertex="1">
                    <mxGeometry x="207.63" y="2468" width="42" height="18" as="geometry"/>
                </mxCell>
                <mxCell id="MP5oNKOP9dcL4W_LWbaU-13" value="C.addr" style="rounded=0;whiteSpace=wrap;html=1;fillColor=#dae8fc;strokeColor=#6c8ebf;" parent="1" vertex="1">
                    <mxGeometry x="299.63" y="2486" width="43.38" height="50" as="geometry"/>
                </mxCell>
                <mxCell id="MP5oNKOP9dcL4W_LWbaU-31" style="edgeStyle=orthogonalEdgeStyle;rounded=0;orthogonalLoop=1;jettySize=auto;html=1;exitX=0.25;exitY=1;exitDx=0;exitDy=0;entryX=0.5;entryY=1;entryDx=0;entryDy=0;" parent="1" source="MP5oNKOP9dcL4W_LWbaU-14" target="MP5oNKOP9dcL4W_LWbaU-13" edge="1">
                    <mxGeometry relative="1" as="geometry">
                        <Array as="points">
                            <mxPoint x="355.63" y="2554"/>
                            <mxPoint x="321.63" y="2554"/>
                        </Array>
                    </mxGeometry>
                </mxCell>
                <mxCell id="MP5oNKOP9dcL4W_LWbaU-14" value="iNode2" style="rounded=0;whiteSpace=wrap;html=1;fillColor=#d5e8d4;strokeColor=#82b366;" parent="1" vertex="1">
                    <mxGeometry x="343.01" y="2486" width="49.62" height="50" as="geometry"/>
                </mxCell>
                <mxCell id="MP5oNKOP9dcL4W_LWbaU-15" value="d.pre" style="text;html=1;align=center;verticalAlign=middle;resizable=0;points=[];autosize=1;strokeColor=none;fillColor=none;" parent="1" vertex="1">
                    <mxGeometry x="302.63" y="2468" width="37" height="18" as="geometry"/>
                </mxCell>
                <mxCell id="MP5oNKOP9dcL4W_LWbaU-16" value="E.addr" style="rounded=0;whiteSpace=wrap;html=1;fillColor=#dae8fc;strokeColor=#6c8ebf;" parent="1" vertex="1">
                    <mxGeometry x="392.63" y="2486" width="43.38" height="50" as="geometry"/>
                </mxCell>
                <mxCell id="MP5oNKOP9dcL4W_LWbaU-30" style="edgeStyle=orthogonalEdgeStyle;rounded=0;orthogonalLoop=1;jettySize=auto;html=1;exitX=0.25;exitY=1;exitDx=0;exitDy=0;entryX=0.5;entryY=1;entryDx=0;entryDy=0;" parent="1" source="MP5oNKOP9dcL4W_LWbaU-17" target="MP5oNKOP9dcL4W_LWbaU-16" edge="1">
                    <mxGeometry relative="1" as="geometry">
                        <Array as="points">
                            <mxPoint x="448.63" y="2552"/>
                            <mxPoint x="414.63" y="2552"/>
                        </Array>
                    </mxGeometry>
                </mxCell>
                <mxCell id="MP5oNKOP9dcL4W_LWbaU-17" value="iNode3" style="rounded=0;whiteSpace=wrap;html=1;fillColor=#d5e8d4;strokeColor=#82b366;" parent="1" vertex="1">
                    <mxGeometry x="436.01" y="2486" width="49.62" height="50" as="geometry"/>
                </mxCell>
                <mxCell id="MP5oNKOP9dcL4W_LWbaU-18" value="d.next" style="text;html=1;align=center;verticalAlign=middle;resizable=0;points=[];autosize=1;strokeColor=none;fillColor=none;" parent="1" vertex="1">
                    <mxGeometry x="392.63" y="2468" width="43" height="18" as="geometry"/>
                </mxCell>
                <mxCell id="MP5oNKOP9dcL4W_LWbaU-19" value="D.addr" style="rounded=0;whiteSpace=wrap;html=1;fillColor=#dae8fc;strokeColor=#6c8ebf;" parent="1" vertex="1">
                    <mxGeometry x="485.63" y="2486" width="43.38" height="50" as="geometry"/>
                </mxCell>
                <mxCell id="MP5oNKOP9dcL4W_LWbaU-28" style="edgeStyle=orthogonalEdgeStyle;rounded=0;orthogonalLoop=1;jettySize=auto;html=1;exitX=0.25;exitY=1;exitDx=0;exitDy=0;entryX=0.5;entryY=1;entryDx=0;entryDy=0;" parent="1" source="MP5oNKOP9dcL4W_LWbaU-20" target="MP5oNKOP9dcL4W_LWbaU-19" edge="1">
                    <mxGeometry relative="1" as="geometry">
                        <Array as="points">
                            <mxPoint x="541.63" y="2552"/>
                            <mxPoint x="507.63" y="2552"/>
                        </Array>
                    </mxGeometry>
                </mxCell>
                <mxCell id="MP5oNKOP9dcL4W_LWbaU-20" value="iNode4" style="rounded=0;whiteSpace=wrap;html=1;fillColor=#d5e8d4;strokeColor=#82b366;" parent="1" vertex="1">
                    <mxGeometry x="529.01" y="2486" width="49.62" height="50" as="geometry"/>
                </mxCell>
                <mxCell id="MP5oNKOP9dcL4W_LWbaU-21" value="e.pre" style="text;html=1;align=center;verticalAlign=middle;resizable=0;points=[];autosize=1;strokeColor=none;fillColor=none;" parent="1" vertex="1">
                    <mxGeometry x="488.82" y="2468" width="37" height="18" as="geometry"/>
                </mxCell>
                <mxCell id="MP5oNKOP9dcL4W_LWbaU-23" style="edgeStyle=orthogonalEdgeStyle;rounded=0;orthogonalLoop=1;jettySize=auto;html=1;entryX=0.5;entryY=1;entryDx=0;entryDy=0;exitX=0.5;exitY=1;exitDx=0;exitDy=0;" parent="1" source="MP5oNKOP9dcL4W_LWbaU-22" target="MP5oNKOP9dcL4W_LWbaU-20" edge="1">
                    <mxGeometry relative="1" as="geometry">
                        <Array as="points">
                            <mxPoint x="607.63" y="2568"/>
                            <mxPoint x="553.63" y="2568"/>
                        </Array>
                    </mxGeometry>
                </mxCell>
                <mxCell id="MP5oNKOP9dcL4W_LWbaU-24" style="edgeStyle=orthogonalEdgeStyle;rounded=0;orthogonalLoop=1;jettySize=auto;html=1;entryX=0.5;entryY=1;entryDx=0;entryDy=0;exitX=0.5;exitY=1;exitDx=0;exitDy=0;" parent="1" source="MP5oNKOP9dcL4W_LWbaU-22" target="MP5oNKOP9dcL4W_LWbaU-17" edge="1">
                    <mxGeometry relative="1" as="geometry">
                        <Array as="points">
                            <mxPoint x="607.63" y="2580"/>
                            <mxPoint x="460.63" y="2580"/>
                        </Array>
                    </mxGeometry>
                </mxCell>
                <mxCell id="MP5oNKOP9dcL4W_LWbaU-25" style="edgeStyle=orthogonalEdgeStyle;rounded=0;orthogonalLoop=1;jettySize=auto;html=1;entryX=0.5;entryY=1;entryDx=0;entryDy=0;exitX=0.5;exitY=1;exitDx=0;exitDy=0;" parent="1" source="MP5oNKOP9dcL4W_LWbaU-22" target="MP5oNKOP9dcL4W_LWbaU-14" edge="1">
                    <mxGeometry relative="1" as="geometry">
                        <mxPoint x="599.63" y="2572" as="sourcePoint"/>
                        <Array as="points">
                            <mxPoint x="607.63" y="2592"/>
                            <mxPoint x="367.63" y="2592"/>
                        </Array>
                    </mxGeometry>
                </mxCell>
                <mxCell id="MP5oNKOP9dcL4W_LWbaU-26" style="edgeStyle=orthogonalEdgeStyle;rounded=0;orthogonalLoop=1;jettySize=auto;html=1;entryX=0.5;entryY=1;entryDx=0;entryDy=0;exitX=0.5;exitY=1;exitDx=0;exitDy=0;" parent="1" source="MP5oNKOP9dcL4W_LWbaU-22" target="MP5oNKOP9dcL4W_LWbaU-4" edge="1">
                    <mxGeometry relative="1" as="geometry">
                        <Array as="points">
                            <mxPoint x="607.63" y="2607"/>
                            <mxPoint x="275.63" y="2607"/>
                        </Array>
                    </mxGeometry>
                </mxCell>
                <mxCell id="MP5oNKOP9dcL4W_LWbaU-22" value="iNode1:0&lt;br&gt;iNode2:1&lt;br&gt;......" style="rounded=0;whiteSpace=wrap;html=1;fillColor=#fff2cc;strokeColor=#d6b656;" parent="1" vertex="1">
                    <mxGeometry x="578.63" y="2486" width="57" height="50" as="geometry"/>
                </mxCell>
                <mxCell id="MP5oNKOP9dcL4W_LWbaU-47" value="C" style="ellipse;whiteSpace=wrap;html=1;aspect=fixed;fillColor=#f8cecc;strokeColor=#b85450;flipH=1;" parent="1" vertex="1">
                    <mxGeometry x="204.38" y="2391" width="40" height="40" as="geometry"/>
                </mxCell>
                <mxCell id="MP5oNKOP9dcL4W_LWbaU-51" value="D" style="ellipse;whiteSpace=wrap;html=1;aspect=fixed;fillColor=#f8cecc;strokeColor=#b85450;flipH=1;" parent="1" vertex="1">
                    <mxGeometry x="302.38" y="2391" width="40" height="40" as="geometry"/>
                </mxCell>
                <mxCell id="MP5oNKOP9dcL4W_LWbaU-52" value="E" style="ellipse;whiteSpace=wrap;html=1;aspect=fixed;fillColor=#f8cecc;strokeColor=#b85450;flipH=1;" parent="1" vertex="1">
                    <mxGeometry x="399.88000000000005" y="2391" width="40" height="40" as="geometry"/>
                </mxCell>
                <mxCell id="MP5oNKOP9dcL4W_LWbaU-53" value="" style="curved=1;endArrow=classic;html=1;rounded=0;entryX=0;entryY=0;entryDx=0;entryDy=0;exitX=1;exitY=0;exitDx=0;exitDy=0;" parent="1" source="MP5oNKOP9dcL4W_LWbaU-47" target="MP5oNKOP9dcL4W_LWbaU-51" edge="1">
                    <mxGeometry width="50" height="50" relative="1" as="geometry">
                        <mxPoint x="241.38" y="2390" as="sourcePoint"/>
                        <mxPoint x="291.38" y="2340" as="targetPoint"/>
                        <Array as="points">
                            <mxPoint x="257.38" y="2385"/>
                            <mxPoint x="283.38" y="2382"/>
                        </Array>
                    </mxGeometry>
                </mxCell>
                <mxCell id="MP5oNKOP9dcL4W_LWbaU-58" value="c.next" style="edgeLabel;html=1;align=center;verticalAlign=middle;resizable=0;points=[];" parent="MP5oNKOP9dcL4W_LWbaU-53" vertex="1" connectable="0">
                    <mxGeometry x="-0.1567" y="1" relative="1" as="geometry">
                        <mxPoint as="offset"/>
                    </mxGeometry>
                </mxCell>
                <mxCell id="MP5oNKOP9dcL4W_LWbaU-55" value="" style="curved=1;endArrow=classic;html=1;rounded=0;entryX=1;entryY=1;entryDx=0;entryDy=0;exitX=0;exitY=1;exitDx=0;exitDy=0;" parent="1" source="MP5oNKOP9dcL4W_LWbaU-51" target="MP5oNKOP9dcL4W_LWbaU-47" edge="1">
                    <mxGeometry width="50" height="50" relative="1" as="geometry">
                        <mxPoint x="230.38" y="2486" as="sourcePoint"/>
                        <mxPoint x="280.38" y="2436" as="targetPoint"/>
                        <Array as="points">
                            <mxPoint x="280.38" y="2447"/>
                        </Array>
                    </mxGeometry>
                </mxCell>
                <mxCell id="MP5oNKOP9dcL4W_LWbaU-59" value="d.pre" style="edgeLabel;html=1;align=center;verticalAlign=middle;resizable=0;points=[];" parent="MP5oNKOP9dcL4W_LWbaU-55" vertex="1" connectable="0">
                    <mxGeometry x="-0.3408" y="-8" relative="1" as="geometry">
                        <mxPoint as="offset"/>
                    </mxGeometry>
                </mxCell>
                <mxCell id="MP5oNKOP9dcL4W_LWbaU-56" value="" style="curved=1;endArrow=classic;html=1;rounded=0;entryX=0;entryY=0;entryDx=0;entryDy=0;exitX=1;exitY=0;exitDx=0;exitDy=0;" parent="1" source="MP5oNKOP9dcL4W_LWbaU-51" target="MP5oNKOP9dcL4W_LWbaU-52" edge="1">
                    <mxGeometry width="50" height="50" relative="1" as="geometry">
                        <mxPoint x="338.572135623731" y="2390.997864376269" as="sourcePoint"/>
                        <mxPoint x="408.28786437626894" y="2390.997864376269" as="targetPoint"/>
                        <Array as="points">
                            <mxPoint x="357.38" y="2385"/>
                            <mxPoint x="387.38" y="2383"/>
                        </Array>
                    </mxGeometry>
                </mxCell>
                <mxCell id="MP5oNKOP9dcL4W_LWbaU-60" value="d.next" style="edgeLabel;html=1;align=center;verticalAlign=middle;resizable=0;points=[];" parent="MP5oNKOP9dcL4W_LWbaU-56" vertex="1" connectable="0">
                    <mxGeometry x="-0.031" y="-1" relative="1" as="geometry">
                        <mxPoint as="offset"/>
                    </mxGeometry>
                </mxCell>
                <mxCell id="MP5oNKOP9dcL4W_LWbaU-57" value="" style="curved=1;endArrow=classic;html=1;rounded=0;entryX=1;entryY=1;entryDx=0;entryDy=0;exitX=0;exitY=1;exitDx=0;exitDy=0;" parent="1" source="MP5oNKOP9dcL4W_LWbaU-52" target="MP5oNKOP9dcL4W_LWbaU-51" edge="1">
                    <mxGeometry width="50" height="50" relative="1" as="geometry">
                        <mxPoint x="412.0978643762689" y="2424.002135623731" as="sourcePoint"/>
                        <mxPoint x="342.3821356237311" y="2424.002135623731" as="targetPoint"/>
                        <Array as="points">
                            <mxPoint x="384.24" y="2445.86"/>
                        </Array>
                    </mxGeometry>
                </mxCell>
                <mxCell id="MP5oNKOP9dcL4W_LWbaU-61" value="e.pre" style="edgeLabel;html=1;align=center;verticalAlign=middle;resizable=0;points=[];" parent="MP5oNKOP9dcL4W_LWbaU-57" vertex="1" connectable="0">
                    <mxGeometry x="0.103" y="-3" relative="1" as="geometry">
                        <mxPoint y="-1" as="offset"/>
                    </mxGeometry>
                </mxCell>
                <mxCell id="MP5oNKOP9dcL4W_LWbaU-62" value="iMap0" style="text;html=1;align=center;verticalAlign=middle;resizable=0;points=[];autosize=1;strokeColor=none;fillColor=none;" parent="1" vertex="1">
                    <mxGeometry x="632.63" y="2500" width="43" height="18" as="geometry"/>
                </mxCell>
                <mxCell id="MP5oNKOP9dcL4W_LWbaU-65" style="edgeStyle=orthogonalEdgeStyle;rounded=0;orthogonalLoop=1;jettySize=auto;html=1;entryX=0.5;entryY=0;entryDx=0;entryDy=0;" parent="1" source="MP5oNKOP9dcL4W_LWbaU-63" target="MP5oNKOP9dcL4W_LWbaU-22" edge="1">
                    <mxGeometry relative="1" as="geometry"/>
                </mxCell>
                <mxCell id="MP5oNKOP9dcL4W_LWbaU-63" value="iNode[0-99]:iMap0&lt;br&gt;..." style="rounded=0;whiteSpace=wrap;html=1;fillColor=#e1d5e7;strokeColor=#9673a6;" parent="1" vertex="1">
                    <mxGeometry x="547.13" y="2371" width="120" height="60" as="geometry"/>
                </mxCell>
                <mxCell id="MP5oNKOP9dcL4W_LWbaU-64" value="CK snapshot" style="text;html=1;align=center;verticalAlign=middle;resizable=0;points=[];autosize=1;strokeColor=none;fillColor=none;" parent="1" vertex="1">
                    <mxGeometry x="567.63" y="2353" width="79" height="18" as="geometry"/>
                </mxCell>
                <mxCell id="MP5oNKOP9dcL4W_LWbaU-68" style="edgeStyle=orthogonalEdgeStyle;rounded=0;orthogonalLoop=1;jettySize=auto;html=1;entryX=0.75;entryY=0;entryDx=0;entryDy=0;" parent="1" source="MP5oNKOP9dcL4W_LWbaU-66" target="MP5oNKOP9dcL4W_LWbaU-22" edge="1">
                    <mxGeometry relative="1" as="geometry">
                        <Array as="points">
                            <mxPoint x="698" y="2313"/>
                            <mxPoint x="698" y="2452"/>
                            <mxPoint x="621" y="2452"/>
                        </Array>
                    </mxGeometry>
                </mxCell>
                <mxCell id="MP5oNKOP9dcL4W_LWbaU-66" value="iNode[0-99]:iMap0&lt;br&gt;..." style="rounded=0;whiteSpace=wrap;html=1;fillColor=#f8cecc;strokeColor=#b85450;" parent="1" vertex="1">
                    <mxGeometry x="547.13" y="2283" width="120" height="60" as="geometry"/>
                </mxCell>
                <mxCell id="MP5oNKOP9dcL4W_LWbaU-67" value="CK transaction" style="text;html=1;align=center;verticalAlign=middle;resizable=0;points=[];autosize=1;strokeColor=none;fillColor=none;" parent="1" vertex="1">
                    <mxGeometry x="563" y="2265" width="89" height="18" as="geometry"/>
                </mxCell>
                <mxCell id="MP5oNKOP9dcL4W_LWbaU-69" value="D.addr" style="rounded=0;whiteSpace=wrap;html=1;fillColor=#dae8fc;strokeColor=#6c8ebf;" parent="1" vertex="1">
                    <mxGeometry x="207.63" y="2956" width="43.38" height="50" as="geometry"/>
                </mxCell>
                <mxCell id="MP5oNKOP9dcL4W_LWbaU-70" style="edgeStyle=orthogonalEdgeStyle;rounded=0;orthogonalLoop=1;jettySize=auto;html=1;exitX=0.25;exitY=1;exitDx=0;exitDy=0;entryX=0.5;entryY=1;entryDx=0;entryDy=0;" parent="1" source="MP5oNKOP9dcL4W_LWbaU-71" target="MP5oNKOP9dcL4W_LWbaU-69" edge="1">
                    <mxGeometry relative="1" as="geometry">
                        <Array as="points">
                            <mxPoint x="263.63" y="3023"/>
                            <mxPoint x="229.63" y="3023"/>
                        </Array>
                    </mxGeometry>
                </mxCell>
                <mxCell id="MP5oNKOP9dcL4W_LWbaU-71" value="iNode1" style="rounded=0;whiteSpace=wrap;html=1;fillColor=#d5e8d4;strokeColor=#82b366;" parent="1" vertex="1">
                    <mxGeometry x="251.01" y="2956" width="49.62" height="50" as="geometry"/>
                </mxCell>
                <mxCell id="MP5oNKOP9dcL4W_LWbaU-72" value="c.next" style="text;html=1;align=center;verticalAlign=middle;resizable=0;points=[];autosize=1;strokeColor=none;fillColor=none;" parent="1" vertex="1">
                    <mxGeometry x="207.63" y="2938" width="42" height="18" as="geometry"/>
                </mxCell>
                <mxCell id="MP5oNKOP9dcL4W_LWbaU-73" value="C.addr" style="rounded=0;whiteSpace=wrap;html=1;fillColor=#dae8fc;strokeColor=#6c8ebf;" parent="1" vertex="1">
                    <mxGeometry x="299.63" y="2956" width="43.38" height="50" as="geometry"/>
                </mxCell>
                <mxCell id="MP5oNKOP9dcL4W_LWbaU-74" style="edgeStyle=orthogonalEdgeStyle;rounded=0;orthogonalLoop=1;jettySize=auto;html=1;exitX=0.25;exitY=1;exitDx=0;exitDy=0;entryX=0.5;entryY=1;entryDx=0;entryDy=0;" parent="1" source="MP5oNKOP9dcL4W_LWbaU-75" target="MP5oNKOP9dcL4W_LWbaU-73" edge="1">
                    <mxGeometry relative="1" as="geometry">
                        <Array as="points">
                            <mxPoint x="355.63" y="3024"/>
                            <mxPoint x="321.63" y="3024"/>
                        </Array>
                    </mxGeometry>
                </mxCell>
                <mxCell id="MP5oNKOP9dcL4W_LWbaU-75" value="iNode2" style="rounded=0;whiteSpace=wrap;html=1;fillColor=#d5e8d4;strokeColor=#82b366;" parent="1" vertex="1">
                    <mxGeometry x="343.01" y="2956" width="49.62" height="50" as="geometry"/>
                </mxCell>
                <mxCell id="MP5oNKOP9dcL4W_LWbaU-76" value="d.pre" style="text;html=1;align=center;verticalAlign=middle;resizable=0;points=[];autosize=1;strokeColor=none;fillColor=none;" parent="1" vertex="1">
                    <mxGeometry x="302.63" y="2938" width="37" height="18" as="geometry"/>
                </mxCell>
                <mxCell id="MP5oNKOP9dcL4W_LWbaU-77" value="E.addr" style="rounded=0;whiteSpace=wrap;html=1;fillColor=#dae8fc;strokeColor=#6c8ebf;" parent="1" vertex="1">
                    <mxGeometry x="392.63" y="2956" width="43.38" height="50" as="geometry"/>
                </mxCell>
                <mxCell id="MP5oNKOP9dcL4W_LWbaU-78" style="edgeStyle=orthogonalEdgeStyle;rounded=0;orthogonalLoop=1;jettySize=auto;html=1;exitX=0.25;exitY=1;exitDx=0;exitDy=0;entryX=0.5;entryY=1;entryDx=0;entryDy=0;" parent="1" source="MP5oNKOP9dcL4W_LWbaU-79" target="MP5oNKOP9dcL4W_LWbaU-77" edge="1">
                    <mxGeometry relative="1" as="geometry">
                        <Array as="points">
                            <mxPoint x="448.63" y="3022"/>
                            <mxPoint x="414.63" y="3022"/>
                        </Array>
                    </mxGeometry>
                </mxCell>
                <mxCell id="MP5oNKOP9dcL4W_LWbaU-79" value="iNode3" style="rounded=0;whiteSpace=wrap;html=1;fillColor=#d5e8d4;strokeColor=#82b366;" parent="1" vertex="1">
                    <mxGeometry x="436.01" y="2956" width="49.62" height="50" as="geometry"/>
                </mxCell>
                <mxCell id="MP5oNKOP9dcL4W_LWbaU-80" value="d.next" style="text;html=1;align=center;verticalAlign=middle;resizable=0;points=[];autosize=1;strokeColor=none;fillColor=none;" parent="1" vertex="1">
                    <mxGeometry x="392.63" y="2938" width="43" height="18" as="geometry"/>
                </mxCell>
                <mxCell id="MP5oNKOP9dcL4W_LWbaU-81" value="D.addr" style="rounded=0;whiteSpace=wrap;html=1;fillColor=#dae8fc;strokeColor=#6c8ebf;" parent="1" vertex="1">
                    <mxGeometry x="485.63" y="2956" width="43.38" height="50" as="geometry"/>
                </mxCell>
                <mxCell id="MP5oNKOP9dcL4W_LWbaU-82" style="edgeStyle=orthogonalEdgeStyle;rounded=0;orthogonalLoop=1;jettySize=auto;html=1;exitX=0.25;exitY=1;exitDx=0;exitDy=0;entryX=0.5;entryY=1;entryDx=0;entryDy=0;" parent="1" source="MP5oNKOP9dcL4W_LWbaU-83" target="MP5oNKOP9dcL4W_LWbaU-81" edge="1">
                    <mxGeometry relative="1" as="geometry">
                        <Array as="points">
                            <mxPoint x="541.63" y="3022"/>
                            <mxPoint x="507.63" y="3022"/>
                        </Array>
                    </mxGeometry>
                </mxCell>
                <mxCell id="MP5oNKOP9dcL4W_LWbaU-83" value="iNode4" style="rounded=0;whiteSpace=wrap;html=1;fillColor=#d5e8d4;strokeColor=#82b366;" parent="1" vertex="1">
                    <mxGeometry x="529.01" y="2956" width="49.62" height="50" as="geometry"/>
                </mxCell>
                <mxCell id="MP5oNKOP9dcL4W_LWbaU-84" value="e.pre" style="text;html=1;align=center;verticalAlign=middle;resizable=0;points=[];autosize=1;strokeColor=none;fillColor=none;" parent="1" vertex="1">
                    <mxGeometry x="488.82" y="2938" width="37" height="18" as="geometry"/>
                </mxCell>
                <mxCell id="MP5oNKOP9dcL4W_LWbaU-85" style="edgeStyle=orthogonalEdgeStyle;rounded=0;orthogonalLoop=1;jettySize=auto;html=1;entryX=0.5;entryY=1;entryDx=0;entryDy=0;exitX=0.5;exitY=1;exitDx=0;exitDy=0;" parent="1" source="MP5oNKOP9dcL4W_LWbaU-89" target="MP5oNKOP9dcL4W_LWbaU-83" edge="1">
                    <mxGeometry relative="1" as="geometry">
                        <Array as="points">
                            <mxPoint x="607.63" y="3038"/>
                            <mxPoint x="553.63" y="3038"/>
                        </Array>
                    </mxGeometry>
                </mxCell>
                <mxCell id="MP5oNKOP9dcL4W_LWbaU-86" style="edgeStyle=orthogonalEdgeStyle;rounded=0;orthogonalLoop=1;jettySize=auto;html=1;entryX=0.5;entryY=1;entryDx=0;entryDy=0;exitX=0.5;exitY=1;exitDx=0;exitDy=0;" parent="1" source="MP5oNKOP9dcL4W_LWbaU-89" target="MP5oNKOP9dcL4W_LWbaU-79" edge="1">
                    <mxGeometry relative="1" as="geometry">
                        <Array as="points">
                            <mxPoint x="607.63" y="3050"/>
                            <mxPoint x="460.63" y="3050"/>
                        </Array>
                    </mxGeometry>
                </mxCell>
                <mxCell id="MP5oNKOP9dcL4W_LWbaU-87" style="edgeStyle=orthogonalEdgeStyle;rounded=0;orthogonalLoop=1;jettySize=auto;html=1;entryX=0.5;entryY=1;entryDx=0;entryDy=0;exitX=0.5;exitY=1;exitDx=0;exitDy=0;" parent="1" source="MP5oNKOP9dcL4W_LWbaU-89" target="MP5oNKOP9dcL4W_LWbaU-75" edge="1">
                    <mxGeometry relative="1" as="geometry">
                        <mxPoint x="599.63" y="3042" as="sourcePoint"/>
                        <Array as="points">
                            <mxPoint x="607.63" y="3062"/>
                            <mxPoint x="367.63" y="3062"/>
                        </Array>
                    </mxGeometry>
                </mxCell>
                <mxCell id="MP5oNKOP9dcL4W_LWbaU-88" style="edgeStyle=orthogonalEdgeStyle;rounded=0;orthogonalLoop=1;jettySize=auto;html=1;entryX=0.5;entryY=1;entryDx=0;entryDy=0;exitX=0.5;exitY=1;exitDx=0;exitDy=0;" parent="1" source="MP5oNKOP9dcL4W_LWbaU-89" target="MP5oNKOP9dcL4W_LWbaU-71" edge="1">
                    <mxGeometry relative="1" as="geometry">
                        <Array as="points">
                            <mxPoint x="607.63" y="3077"/>
                            <mxPoint x="275.63" y="3077"/>
                        </Array>
                    </mxGeometry>
                </mxCell>
                <mxCell id="MP5oNKOP9dcL4W_LWbaU-89" value="iNode1:0&lt;br&gt;iNode2:1&lt;br&gt;......" style="rounded=0;whiteSpace=wrap;html=1;fillColor=#fff2cc;strokeColor=#d6b656;" parent="1" vertex="1">
                    <mxGeometry x="578.63" y="2956" width="57" height="50" as="geometry"/>
                </mxCell>
                <mxCell id="MP5oNKOP9dcL4W_LWbaU-90" value="C" style="ellipse;whiteSpace=wrap;html=1;aspect=fixed;fillColor=#f8cecc;strokeColor=#b85450;flipH=1;" parent="1" vertex="1">
                    <mxGeometry x="203.57" y="2830" width="40" height="40" as="geometry"/>
                </mxCell>
                <mxCell id="MP5oNKOP9dcL4W_LWbaU-91" value="D" style="ellipse;whiteSpace=wrap;html=1;aspect=fixed;fillColor=#f8cecc;strokeColor=#b85450;flipH=1;" parent="1" vertex="1">
                    <mxGeometry x="301.57" y="2830" width="40" height="40" as="geometry"/>
                </mxCell>
                <mxCell id="MP5oNKOP9dcL4W_LWbaU-92" value="E" style="ellipse;whiteSpace=wrap;html=1;aspect=fixed;fillColor=#f8cecc;strokeColor=#b85450;flipH=1;" parent="1" vertex="1">
                    <mxGeometry x="399.07000000000005" y="2830" width="40" height="40" as="geometry"/>
                </mxCell>
                <mxCell id="MP5oNKOP9dcL4W_LWbaU-93" value="" style="curved=1;endArrow=classic;html=1;rounded=0;entryX=0;entryY=0;entryDx=0;entryDy=0;exitX=1;exitY=0;exitDx=0;exitDy=0;" parent="1" source="MP5oNKOP9dcL4W_LWbaU-90" target="MP5oNKOP9dcL4W_LWbaU-91" edge="1">
                    <mxGeometry width="50" height="50" relative="1" as="geometry">
                        <mxPoint x="240.57" y="2829" as="sourcePoint"/>
                        <mxPoint x="290.57" y="2779" as="targetPoint"/>
                        <Array as="points">
                            <mxPoint x="256.57" y="2824"/>
                            <mxPoint x="282.57" y="2821"/>
                        </Array>
                    </mxGeometry>
                </mxCell>
                <mxCell id="MP5oNKOP9dcL4W_LWbaU-94" value="c.next" style="edgeLabel;html=1;align=center;verticalAlign=middle;resizable=0;points=[];" parent="MP5oNKOP9dcL4W_LWbaU-93" vertex="1" connectable="0">
                    <mxGeometry x="-0.1567" y="1" relative="1" as="geometry">
                        <mxPoint as="offset"/>
                    </mxGeometry>
                </mxCell>
                <mxCell id="MP5oNKOP9dcL4W_LWbaU-95" value="" style="curved=1;endArrow=classic;html=1;rounded=0;entryX=1;entryY=1;entryDx=0;entryDy=0;exitX=0;exitY=1;exitDx=0;exitDy=0;" parent="1" source="MP5oNKOP9dcL4W_LWbaU-91" target="MP5oNKOP9dcL4W_LWbaU-90" edge="1">
                    <mxGeometry width="50" height="50" relative="1" as="geometry">
                        <mxPoint x="229.57" y="2925" as="sourcePoint"/>
                        <mxPoint x="279.57" y="2875" as="targetPoint"/>
                        <Array as="points">
                            <mxPoint x="279.57" y="2886"/>
                        </Array>
                    </mxGeometry>
                </mxCell>
                <mxCell id="MP5oNKOP9dcL4W_LWbaU-96" value="d.pre" style="edgeLabel;html=1;align=center;verticalAlign=middle;resizable=0;points=[];" parent="MP5oNKOP9dcL4W_LWbaU-95" vertex="1" connectable="0">
                    <mxGeometry x="-0.3408" y="-8" relative="1" as="geometry">
                        <mxPoint as="offset"/>
                    </mxGeometry>
                </mxCell>
                <mxCell id="MP5oNKOP9dcL4W_LWbaU-97" value="" style="curved=1;endArrow=classic;html=1;rounded=0;entryX=0;entryY=0;entryDx=0;entryDy=0;exitX=1;exitY=0;exitDx=0;exitDy=0;" parent="1" source="MP5oNKOP9dcL4W_LWbaU-91" target="MP5oNKOP9dcL4W_LWbaU-92" edge="1">
                    <mxGeometry width="50" height="50" relative="1" as="geometry">
                        <mxPoint x="337.762135623731" y="2829.997864376269" as="sourcePoint"/>
                        <mxPoint x="407.47786437626894" y="2829.997864376269" as="targetPoint"/>
                        <Array as="points">
                            <mxPoint x="356.57" y="2824"/>
                            <mxPoint x="386.57" y="2822"/>
                        </Array>
                    </mxGeometry>
                </mxCell>
                <mxCell id="MP5oNKOP9dcL4W_LWbaU-98" value="d.next" style="edgeLabel;html=1;align=center;verticalAlign=middle;resizable=0;points=[];" parent="MP5oNKOP9dcL4W_LWbaU-97" vertex="1" connectable="0">
                    <mxGeometry x="-0.031" y="-1" relative="1" as="geometry">
                        <mxPoint as="offset"/>
                    </mxGeometry>
                </mxCell>
                <mxCell id="MP5oNKOP9dcL4W_LWbaU-99" value="" style="curved=1;endArrow=classic;html=1;rounded=0;entryX=1;entryY=1;entryDx=0;entryDy=0;exitX=0;exitY=1;exitDx=0;exitDy=0;" parent="1" source="MP5oNKOP9dcL4W_LWbaU-92" target="MP5oNKOP9dcL4W_LWbaU-91" edge="1">
                    <mxGeometry width="50" height="50" relative="1" as="geometry">
                        <mxPoint x="411.2878643762689" y="2863.002135623731" as="sourcePoint"/>
                        <mxPoint x="341.57213562373107" y="2863.002135623731" as="targetPoint"/>
                        <Array as="points">
                            <mxPoint x="383.43" y="2884.86"/>
                        </Array>
                    </mxGeometry>
                </mxCell>
                <mxCell id="MP5oNKOP9dcL4W_LWbaU-100" value="e.pre" style="edgeLabel;html=1;align=center;verticalAlign=middle;resizable=0;points=[];" parent="MP5oNKOP9dcL4W_LWbaU-99" vertex="1" connectable="0">
                    <mxGeometry x="0.103" y="-3" relative="1" as="geometry">
                        <mxPoint y="-1" as="offset"/>
                    </mxGeometry>
                </mxCell>
                <mxCell id="MP5oNKOP9dcL4W_LWbaU-101" value="iMap0" style="text;html=1;align=center;verticalAlign=middle;resizable=0;points=[];autosize=1;strokeColor=none;fillColor=none;" parent="1" vertex="1">
                    <mxGeometry x="592.63" y="3010" width="43" height="18" as="geometry"/>
                </mxCell>
                <mxCell id="MP5oNKOP9dcL4W_LWbaU-102" style="edgeStyle=orthogonalEdgeStyle;rounded=0;orthogonalLoop=1;jettySize=auto;html=1;entryX=0.5;entryY=0;entryDx=0;entryDy=0;" parent="1" source="MP5oNKOP9dcL4W_LWbaU-103" target="MP5oNKOP9dcL4W_LWbaU-89" edge="1">
                    <mxGeometry relative="1" as="geometry"/>
                </mxCell>
                <mxCell id="MP5oNKOP9dcL4W_LWbaU-103" value="iNode[0-99]:iMap0&lt;br&gt;..." style="rounded=0;whiteSpace=wrap;html=1;fillColor=#e1d5e7;strokeColor=#9673a6;" parent="1" vertex="1">
                    <mxGeometry x="547.13" y="2841" width="120" height="60" as="geometry"/>
                </mxCell>
                <mxCell id="MP5oNKOP9dcL4W_LWbaU-104" value="CK snapshot" style="text;html=1;align=center;verticalAlign=middle;resizable=0;points=[];autosize=1;strokeColor=none;fillColor=none;" parent="1" vertex="1">
                    <mxGeometry x="567.63" y="2823" width="79" height="18" as="geometry"/>
                </mxCell>
                <mxCell id="MP5oNKOP9dcL4W_LWbaU-105" style="edgeStyle=orthogonalEdgeStyle;rounded=0;orthogonalLoop=1;jettySize=auto;html=1;entryX=0.5;entryY=0;entryDx=0;entryDy=0;strokeColor=#FF3333;" parent="1" source="MP5oNKOP9dcL4W_LWbaU-106" target="MP5oNKOP9dcL4W_LWbaU-129" edge="1">
                    <mxGeometry relative="1" as="geometry">
                        <Array as="points">
                            <mxPoint x="850" y="2783"/>
                        </Array>
                    </mxGeometry>
                </mxCell>
                <mxCell id="MP5oNKOP9dcL4W_LWbaU-133" style="edgeStyle=orthogonalEdgeStyle;rounded=0;orthogonalLoop=1;jettySize=auto;html=1;entryX=0.75;entryY=0;entryDx=0;entryDy=0;strokeColor=#000000;" parent="1" source="MP5oNKOP9dcL4W_LWbaU-106" target="MP5oNKOP9dcL4W_LWbaU-89" edge="1">
                    <mxGeometry relative="1" as="geometry">
                        <Array as="points">
                            <mxPoint x="724" y="2783"/>
                            <mxPoint x="724" y="2920"/>
                            <mxPoint x="621" y="2920"/>
                        </Array>
                    </mxGeometry>
                </mxCell>
                <mxCell id="MP5oNKOP9dcL4W_LWbaU-106" value="iNode[0-99]:iMap0&lt;br&gt;..." style="rounded=0;whiteSpace=wrap;html=1;fillColor=#f8cecc;strokeColor=#b85450;" parent="1" vertex="1">
                    <mxGeometry x="547.13" y="2753" width="120" height="60" as="geometry"/>
                </mxCell>
                <mxCell id="MP5oNKOP9dcL4W_LWbaU-107" value="CK transaction" style="text;html=1;align=center;verticalAlign=middle;resizable=0;points=[];autosize=1;strokeColor=none;fillColor=none;" parent="1" vertex="1">
                    <mxGeometry x="563" y="2735" width="89" height="18" as="geometry"/>
                </mxCell>
                <mxCell id="MP5oNKOP9dcL4W_LWbaU-108" value="" style="curved=1;endArrow=classic;html=1;rounded=0;exitX=0.5;exitY=0;exitDx=0;exitDy=0;entryX=0.5;entryY=0;entryDx=0;entryDy=0;strokeColor=#FF3333;" parent="1" source="MP5oNKOP9dcL4W_LWbaU-90" target="MP5oNKOP9dcL4W_LWbaU-92" edge="1">
                    <mxGeometry width="50" height="50" relative="1" as="geometry">
                        <mxPoint x="251.19" y="2772" as="sourcePoint"/>
                        <mxPoint x="301.19" y="2722" as="targetPoint"/>
                        <Array as="points">
                            <mxPoint x="298.19" y="2786"/>
                            <mxPoint x="357.19" y="2789"/>
                        </Array>
                    </mxGeometry>
                </mxCell>
                <mxCell id="MP5oNKOP9dcL4W_LWbaU-112" value="c.next" style="edgeLabel;html=1;align=center;verticalAlign=middle;resizable=0;points=[];" parent="MP5oNKOP9dcL4W_LWbaU-108" vertex="1" connectable="0">
                    <mxGeometry x="-0.0784" y="-2" relative="1" as="geometry">
                        <mxPoint as="offset"/>
                    </mxGeometry>
                </mxCell>
                <mxCell id="MP5oNKOP9dcL4W_LWbaU-111" value="" style="group" parent="1" vertex="1" connectable="0">
                    <mxGeometry x="256.56" y="2813" width="23.629999999999995" height="19" as="geometry"/>
                </mxCell>
                <mxCell id="MP5oNKOP9dcL4W_LWbaU-109" value="" style="endArrow=none;html=1;rounded=0;strokeColor=#FF3333;" parent="MP5oNKOP9dcL4W_LWbaU-111" edge="1">
                    <mxGeometry width="50" height="50" relative="1" as="geometry">
                        <mxPoint y="18" as="sourcePoint"/>
                        <mxPoint x="22" y="3" as="targetPoint"/>
                    </mxGeometry>
                </mxCell>
                <mxCell id="MP5oNKOP9dcL4W_LWbaU-110" value="" style="endArrow=none;html=1;rounded=0;strokeColor=#FF3333;" parent="MP5oNKOP9dcL4W_LWbaU-111" edge="1">
                    <mxGeometry width="50" height="50" relative="1" as="geometry">
                        <mxPoint x="1.6299999999999955" as="sourcePoint"/>
                        <mxPoint x="23.629999999999995" y="19" as="targetPoint"/>
                    </mxGeometry>
                </mxCell>
                <mxCell id="MP5oNKOP9dcL4W_LWbaU-113" value="" style="group" parent="1" vertex="1" connectable="0">
                    <mxGeometry x="115" y="2728" width="23.629999999999995" height="19" as="geometry"/>
                </mxCell>
                <mxCell id="MP5oNKOP9dcL4W_LWbaU-114" value="" style="endArrow=none;html=1;rounded=0;strokeColor=#FF3333;" parent="MP5oNKOP9dcL4W_LWbaU-113" edge="1">
                    <mxGeometry width="50" height="50" relative="1" as="geometry">
                        <mxPoint y="18" as="sourcePoint"/>
                        <mxPoint x="22" y="3" as="targetPoint"/>
                    </mxGeometry>
                </mxCell>
                <mxCell id="MP5oNKOP9dcL4W_LWbaU-115" value="" style="endArrow=none;html=1;rounded=0;strokeColor=#FF3333;" parent="MP5oNKOP9dcL4W_LWbaU-113" edge="1">
                    <mxGeometry width="50" height="50" relative="1" as="geometry">
                        <mxPoint x="1.6299999999999955" as="sourcePoint"/>
                        <mxPoint x="23.629999999999995" y="19" as="targetPoint"/>
                    </mxGeometry>
                </mxCell>
                <mxCell id="MP5oNKOP9dcL4W_LWbaU-116" value="E.addr" style="rounded=0;whiteSpace=wrap;html=1;fillColor=#dae8fc;strokeColor=#6c8ebf;" parent="1" vertex="1">
                    <mxGeometry x="635.63" y="2956.48" width="43.38" height="50" as="geometry"/>
                </mxCell>
                <mxCell id="MP5oNKOP9dcL4W_LWbaU-117" style="edgeStyle=orthogonalEdgeStyle;rounded=0;orthogonalLoop=1;jettySize=auto;html=1;exitX=0.25;exitY=1;exitDx=0;exitDy=0;entryX=0.5;entryY=1;entryDx=0;entryDy=0;" parent="1" source="MP5oNKOP9dcL4W_LWbaU-118" target="MP5oNKOP9dcL4W_LWbaU-116" edge="1">
                    <mxGeometry relative="1" as="geometry">
                        <Array as="points">
                            <mxPoint x="691.63" y="3023.48"/>
                            <mxPoint x="657.63" y="3023.48"/>
                        </Array>
                    </mxGeometry>
                </mxCell>
                <mxCell id="MP5oNKOP9dcL4W_LWbaU-118" value="iNode1" style="rounded=0;whiteSpace=wrap;html=1;fillColor=#d5e8d4;strokeColor=#82b366;" parent="1" vertex="1">
                    <mxGeometry x="679.01" y="2956.48" width="49.62" height="50" as="geometry"/>
                </mxCell>
                <mxCell id="MP5oNKOP9dcL4W_LWbaU-119" value="c.next" style="text;html=1;align=center;verticalAlign=middle;resizable=0;points=[];autosize=1;strokeColor=none;fillColor=none;" parent="1" vertex="1">
                    <mxGeometry x="635.63" y="2938.48" width="42" height="18" as="geometry"/>
                </mxCell>
                <mxCell id="MP5oNKOP9dcL4W_LWbaU-120" value="" style="curved=1;endArrow=classic;html=1;rounded=0;strokeColor=#FF3333;entryX=0.5;entryY=1;entryDx=0;entryDy=0;exitX=0.5;exitY=1;exitDx=0;exitDy=0;" parent="1" source="MP5oNKOP9dcL4W_LWbaU-92" target="MP5oNKOP9dcL4W_LWbaU-90" edge="1">
                    <mxGeometry width="50" height="50" relative="1" as="geometry">
                        <mxPoint x="160" y="2933" as="sourcePoint"/>
                        <mxPoint x="210" y="2883" as="targetPoint"/>
                        <Array as="points">
                            <mxPoint x="352" y="2901"/>
                            <mxPoint x="302" y="2904"/>
                            <mxPoint x="270" y="2896"/>
                        </Array>
                    </mxGeometry>
                </mxCell>
                <mxCell id="MP5oNKOP9dcL4W_LWbaU-124" value="e.pre" style="edgeLabel;html=1;align=center;verticalAlign=middle;resizable=0;points=[];" parent="MP5oNKOP9dcL4W_LWbaU-120" vertex="1" connectable="0">
                    <mxGeometry x="-0.1766" y="-3" relative="1" as="geometry">
                        <mxPoint as="offset"/>
                    </mxGeometry>
                </mxCell>
                <mxCell id="MP5oNKOP9dcL4W_LWbaU-121" value="" style="group" parent="1" vertex="1" connectable="0">
                    <mxGeometry x="347" y="2864" width="23.629999999999995" height="19" as="geometry"/>
                </mxCell>
                <mxCell id="MP5oNKOP9dcL4W_LWbaU-122" value="" style="endArrow=none;html=1;rounded=0;strokeColor=#FF3333;" parent="MP5oNKOP9dcL4W_LWbaU-121" edge="1">
                    <mxGeometry width="50" height="50" relative="1" as="geometry">
                        <mxPoint y="18" as="sourcePoint"/>
                        <mxPoint x="22" y="3" as="targetPoint"/>
                    </mxGeometry>
                </mxCell>
                <mxCell id="MP5oNKOP9dcL4W_LWbaU-123" value="" style="endArrow=none;html=1;rounded=0;strokeColor=#FF3333;" parent="MP5oNKOP9dcL4W_LWbaU-121" edge="1">
                    <mxGeometry width="50" height="50" relative="1" as="geometry">
                        <mxPoint x="1.6299999999999955" as="sourcePoint"/>
                        <mxPoint x="23.629999999999995" y="19" as="targetPoint"/>
                    </mxGeometry>
                </mxCell>
                <mxCell id="MP5oNKOP9dcL4W_LWbaU-125" value="C.addr" style="rounded=0;whiteSpace=wrap;html=1;fillColor=#dae8fc;strokeColor=#6c8ebf;" parent="1" vertex="1">
                    <mxGeometry x="728.63" y="2957" width="43.38" height="50" as="geometry"/>
                </mxCell>
                <mxCell id="MP5oNKOP9dcL4W_LWbaU-126" style="edgeStyle=orthogonalEdgeStyle;rounded=0;orthogonalLoop=1;jettySize=auto;html=1;exitX=0.25;exitY=1;exitDx=0;exitDy=0;entryX=0.5;entryY=1;entryDx=0;entryDy=0;" parent="1" source="MP5oNKOP9dcL4W_LWbaU-127" target="MP5oNKOP9dcL4W_LWbaU-125" edge="1">
                    <mxGeometry relative="1" as="geometry">
                        <Array as="points">
                            <mxPoint x="784" y="3027"/>
                            <mxPoint x="750" y="3027"/>
                        </Array>
                    </mxGeometry>
                </mxCell>
                <mxCell id="MP5oNKOP9dcL4W_LWbaU-127" value="iNode4" style="rounded=0;whiteSpace=wrap;html=1;fillColor=#d5e8d4;strokeColor=#82b366;" parent="1" vertex="1">
                    <mxGeometry x="772.01" y="2957" width="49.62" height="50" as="geometry"/>
                </mxCell>
                <mxCell id="MP5oNKOP9dcL4W_LWbaU-128" value="e.pre" style="text;html=1;align=center;verticalAlign=middle;resizable=0;points=[];autosize=1;strokeColor=none;fillColor=none;" parent="1" vertex="1">
                    <mxGeometry x="731.8199999999999" y="2939" width="37" height="18" as="geometry"/>
                </mxCell>
                <mxCell id="MP5oNKOP9dcL4W_LWbaU-130" style="edgeStyle=orthogonalEdgeStyle;rounded=0;orthogonalLoop=1;jettySize=auto;html=1;entryX=0.5;entryY=1;entryDx=0;entryDy=0;strokeColor=#000000;" parent="1" source="MP5oNKOP9dcL4W_LWbaU-129" target="MP5oNKOP9dcL4W_LWbaU-127" edge="1">
                    <mxGeometry relative="1" as="geometry">
                        <Array as="points">
                            <mxPoint x="839" y="3027"/>
                            <mxPoint x="797" y="3027"/>
                        </Array>
                    </mxGeometry>
                </mxCell>
                <mxCell id="MP5oNKOP9dcL4W_LWbaU-132" style="edgeStyle=orthogonalEdgeStyle;rounded=0;orthogonalLoop=1;jettySize=auto;html=1;entryX=0.5;entryY=1;entryDx=0;entryDy=0;strokeColor=#000000;exitX=0.5;exitY=1;exitDx=0;exitDy=0;" parent="1" source="MP5oNKOP9dcL4W_LWbaU-129" target="MP5oNKOP9dcL4W_LWbaU-118" edge="1">
                    <mxGeometry relative="1" as="geometry">
                        <Array as="points">
                            <mxPoint x="850" y="3039"/>
                            <mxPoint x="704" y="3039"/>
                        </Array>
                    </mxGeometry>
                </mxCell>
                <mxCell id="MP5oNKOP9dcL4W_LWbaU-129" value="iNode1:4&lt;br&gt;iNode2:5&lt;br&gt;......" style="rounded=0;whiteSpace=wrap;html=1;fillColor=#fff2cc;strokeColor=#d6b656;" parent="1" vertex="1">
                    <mxGeometry x="821.63" y="2957" width="57" height="50" as="geometry"/>
                </mxCell>
                <mxCell id="MP5oNKOP9dcL4W_LWbaU-135" value="" style="group" parent="1" vertex="1" connectable="0">
                    <mxGeometry x="713" y="2851" width="23.629999999999995" height="19" as="geometry"/>
                </mxCell>
                <mxCell id="MP5oNKOP9dcL4W_LWbaU-136" value="" style="endArrow=none;html=1;rounded=0;strokeColor=#FF3333;" parent="MP5oNKOP9dcL4W_LWbaU-135" edge="1">
                    <mxGeometry width="50" height="50" relative="1" as="geometry">
                        <mxPoint y="18" as="sourcePoint"/>
                        <mxPoint x="22" y="3" as="targetPoint"/>
                    </mxGeometry>
                </mxCell>
                <mxCell id="MP5oNKOP9dcL4W_LWbaU-137" value="" style="endArrow=none;html=1;rounded=0;strokeColor=#FF3333;" parent="MP5oNKOP9dcL4W_LWbaU-135" edge="1">
                    <mxGeometry width="50" height="50" relative="1" as="geometry">
                        <mxPoint x="1.6299999999999955" as="sourcePoint"/>
                        <mxPoint x="23.629999999999995" y="19" as="targetPoint"/>
                    </mxGeometry>
                </mxCell>
                <mxCell id="MP5oNKOP9dcL4W_LWbaU-138" value="iMap1" style="text;html=1;align=center;verticalAlign=middle;resizable=0;points=[];autosize=1;strokeColor=none;fillColor=none;" parent="1" vertex="1">
                    <mxGeometry x="877.5" y="2973" width="43" height="18" as="geometry"/>
                </mxCell>
                <mxCell id="MP5oNKOP9dcL4W_LWbaU-139" value="D.addr" style="rounded=0;whiteSpace=wrap;html=1;fillColor=#dae8fc;strokeColor=#6c8ebf;" parent="1" vertex="1">
                    <mxGeometry x="173.69" y="3462" width="43.38" height="50" as="geometry"/>
                </mxCell>
                <mxCell id="MP5oNKOP9dcL4W_LWbaU-140" style="edgeStyle=orthogonalEdgeStyle;rounded=0;orthogonalLoop=1;jettySize=auto;html=1;exitX=0.25;exitY=1;exitDx=0;exitDy=0;entryX=0.5;entryY=1;entryDx=0;entryDy=0;" parent="1" source="MP5oNKOP9dcL4W_LWbaU-141" target="MP5oNKOP9dcL4W_LWbaU-139" edge="1">
                    <mxGeometry relative="1" as="geometry">
                        <Array as="points">
                            <mxPoint x="229.69" y="3529"/>
                            <mxPoint x="195.69" y="3529"/>
                        </Array>
                    </mxGeometry>
                </mxCell>
                <mxCell id="MP5oNKOP9dcL4W_LWbaU-141" value="iNode1" style="rounded=0;whiteSpace=wrap;html=1;fillColor=#d5e8d4;strokeColor=#82b366;" parent="1" vertex="1">
                    <mxGeometry x="217.07" y="3462" width="49.62" height="50" as="geometry"/>
                </mxCell>
                <mxCell id="MP5oNKOP9dcL4W_LWbaU-142" value="c.next" style="text;html=1;align=center;verticalAlign=middle;resizable=0;points=[];autosize=1;strokeColor=none;fillColor=none;" parent="1" vertex="1">
                    <mxGeometry x="173.69" y="3444" width="42" height="18" as="geometry"/>
                </mxCell>
                <mxCell id="MP5oNKOP9dcL4W_LWbaU-143" value="C.addr" style="rounded=0;whiteSpace=wrap;html=1;fillColor=#dae8fc;strokeColor=#6c8ebf;" parent="1" vertex="1">
                    <mxGeometry x="265.69" y="3462" width="43.38" height="50" as="geometry"/>
                </mxCell>
                <mxCell id="MP5oNKOP9dcL4W_LWbaU-144" style="edgeStyle=orthogonalEdgeStyle;rounded=0;orthogonalLoop=1;jettySize=auto;html=1;exitX=0.25;exitY=1;exitDx=0;exitDy=0;entryX=0.5;entryY=1;entryDx=0;entryDy=0;" parent="1" source="MP5oNKOP9dcL4W_LWbaU-145" target="MP5oNKOP9dcL4W_LWbaU-143" edge="1">
                    <mxGeometry relative="1" as="geometry">
                        <Array as="points">
                            <mxPoint x="321.69" y="3530"/>
                            <mxPoint x="287.69" y="3530"/>
                        </Array>
                    </mxGeometry>
                </mxCell>
                <mxCell id="MP5oNKOP9dcL4W_LWbaU-145" value="iNode2" style="rounded=0;whiteSpace=wrap;html=1;fillColor=#d5e8d4;strokeColor=#82b366;" parent="1" vertex="1">
                    <mxGeometry x="309.07" y="3462" width="49.62" height="50" as="geometry"/>
                </mxCell>
                <mxCell id="MP5oNKOP9dcL4W_LWbaU-146" value="d.pre" style="text;html=1;align=center;verticalAlign=middle;resizable=0;points=[];autosize=1;strokeColor=none;fillColor=none;" parent="1" vertex="1">
                    <mxGeometry x="268.69" y="3444" width="37" height="18" as="geometry"/>
                </mxCell>
                <mxCell id="MP5oNKOP9dcL4W_LWbaU-147" value="E.addr" style="rounded=0;whiteSpace=wrap;html=1;fillColor=#dae8fc;strokeColor=#6c8ebf;" parent="1" vertex="1">
                    <mxGeometry x="358.69" y="3462" width="43.38" height="50" as="geometry"/>
                </mxCell>
                <mxCell id="MP5oNKOP9dcL4W_LWbaU-148" style="edgeStyle=orthogonalEdgeStyle;rounded=0;orthogonalLoop=1;jettySize=auto;html=1;exitX=0.25;exitY=1;exitDx=0;exitDy=0;entryX=0.5;entryY=1;entryDx=0;entryDy=0;" parent="1" source="MP5oNKOP9dcL4W_LWbaU-149" target="MP5oNKOP9dcL4W_LWbaU-147" edge="1">
                    <mxGeometry relative="1" as="geometry">
                        <Array as="points">
                            <mxPoint x="414.69" y="3528"/>
                            <mxPoint x="380.69" y="3528"/>
                        </Array>
                    </mxGeometry>
                </mxCell>
                <mxCell id="MP5oNKOP9dcL4W_LWbaU-149" value="iNode3" style="rounded=0;whiteSpace=wrap;html=1;fillColor=#d5e8d4;strokeColor=#82b366;" parent="1" vertex="1">
                    <mxGeometry x="402.07" y="3462" width="49.62" height="50" as="geometry"/>
                </mxCell>
                <mxCell id="MP5oNKOP9dcL4W_LWbaU-150" value="d.next" style="text;html=1;align=center;verticalAlign=middle;resizable=0;points=[];autosize=1;strokeColor=none;fillColor=none;" parent="1" vertex="1">
                    <mxGeometry x="358.69" y="3444" width="43" height="18" as="geometry"/>
                </mxCell>
                <mxCell id="MP5oNKOP9dcL4W_LWbaU-151" value="D.addr" style="rounded=0;whiteSpace=wrap;html=1;fillColor=#dae8fc;strokeColor=#6c8ebf;" parent="1" vertex="1">
                    <mxGeometry x="451.69" y="3462" width="43.38" height="50" as="geometry"/>
                </mxCell>
                <mxCell id="MP5oNKOP9dcL4W_LWbaU-152" style="edgeStyle=orthogonalEdgeStyle;rounded=0;orthogonalLoop=1;jettySize=auto;html=1;exitX=0.25;exitY=1;exitDx=0;exitDy=0;entryX=0.5;entryY=1;entryDx=0;entryDy=0;" parent="1" source="MP5oNKOP9dcL4W_LWbaU-153" target="MP5oNKOP9dcL4W_LWbaU-151" edge="1">
                    <mxGeometry relative="1" as="geometry">
                        <Array as="points">
                            <mxPoint x="507.69" y="3528"/>
                            <mxPoint x="473.69" y="3528"/>
                        </Array>
                    </mxGeometry>
                </mxCell>
                <mxCell id="MP5oNKOP9dcL4W_LWbaU-153" value="iNode4" style="rounded=0;whiteSpace=wrap;html=1;fillColor=#d5e8d4;strokeColor=#82b366;" parent="1" vertex="1">
                    <mxGeometry x="495.07" y="3462" width="49.62" height="50" as="geometry"/>
                </mxCell>
                <mxCell id="MP5oNKOP9dcL4W_LWbaU-154" value="e.pre" style="text;html=1;align=center;verticalAlign=middle;resizable=0;points=[];autosize=1;strokeColor=none;fillColor=none;" parent="1" vertex="1">
                    <mxGeometry x="454.88" y="3444" width="37" height="18" as="geometry"/>
                </mxCell>
                <mxCell id="MP5oNKOP9dcL4W_LWbaU-155" style="edgeStyle=orthogonalEdgeStyle;rounded=0;orthogonalLoop=1;jettySize=auto;html=1;entryX=0.5;entryY=1;entryDx=0;entryDy=0;exitX=0.5;exitY=1;exitDx=0;exitDy=0;" parent="1" source="MP5oNKOP9dcL4W_LWbaU-159" target="MP5oNKOP9dcL4W_LWbaU-153" edge="1">
                    <mxGeometry relative="1" as="geometry">
                        <Array as="points">
                            <mxPoint x="573.6899999999999" y="3544"/>
                            <mxPoint x="519.6899999999999" y="3544"/>
                        </Array>
                    </mxGeometry>
                </mxCell>
                <mxCell id="MP5oNKOP9dcL4W_LWbaU-156" style="edgeStyle=orthogonalEdgeStyle;rounded=0;orthogonalLoop=1;jettySize=auto;html=1;entryX=0.5;entryY=1;entryDx=0;entryDy=0;exitX=0.5;exitY=1;exitDx=0;exitDy=0;" parent="1" source="MP5oNKOP9dcL4W_LWbaU-159" target="MP5oNKOP9dcL4W_LWbaU-149" edge="1">
                    <mxGeometry relative="1" as="geometry">
                        <Array as="points">
                            <mxPoint x="573.6899999999999" y="3556"/>
                            <mxPoint x="426.69" y="3556"/>
                        </Array>
                    </mxGeometry>
                </mxCell>
                <mxCell id="MP5oNKOP9dcL4W_LWbaU-157" style="edgeStyle=orthogonalEdgeStyle;rounded=0;orthogonalLoop=1;jettySize=auto;html=1;entryX=0.5;entryY=1;entryDx=0;entryDy=0;exitX=0.5;exitY=1;exitDx=0;exitDy=0;" parent="1" source="MP5oNKOP9dcL4W_LWbaU-159" target="MP5oNKOP9dcL4W_LWbaU-145" edge="1">
                    <mxGeometry relative="1" as="geometry">
                        <mxPoint x="565.6899999999999" y="3548" as="sourcePoint"/>
                        <Array as="points">
                            <mxPoint x="573.6899999999999" y="3568"/>
                            <mxPoint x="333.69" y="3568"/>
                        </Array>
                    </mxGeometry>
                </mxCell>
                <mxCell id="MP5oNKOP9dcL4W_LWbaU-158" style="edgeStyle=orthogonalEdgeStyle;rounded=0;orthogonalLoop=1;jettySize=auto;html=1;entryX=0.5;entryY=1;entryDx=0;entryDy=0;exitX=0.5;exitY=1;exitDx=0;exitDy=0;" parent="1" source="MP5oNKOP9dcL4W_LWbaU-159" target="MP5oNKOP9dcL4W_LWbaU-141" edge="1">
                    <mxGeometry relative="1" as="geometry">
                        <Array as="points">
                            <mxPoint x="573.6899999999999" y="3583"/>
                            <mxPoint x="241.69" y="3583"/>
                        </Array>
                    </mxGeometry>
                </mxCell>
                <mxCell id="MP5oNKOP9dcL4W_LWbaU-159" value="iNode1:0&lt;br&gt;iNode2:1&lt;br&gt;......" style="rounded=0;whiteSpace=wrap;html=1;fillColor=#fff2cc;strokeColor=#d6b656;" parent="1" vertex="1">
                    <mxGeometry x="544.6899999999999" y="3462" width="57" height="50" as="geometry"/>
                </mxCell>
                <mxCell id="MP5oNKOP9dcL4W_LWbaU-160" value="C" style="ellipse;whiteSpace=wrap;html=1;aspect=fixed;fillColor=#f8cecc;strokeColor=#b85450;flipH=1;" parent="1" vertex="1">
                    <mxGeometry x="169.63" y="3336" width="40" height="40" as="geometry"/>
                </mxCell>
                <mxCell id="MP5oNKOP9dcL4W_LWbaU-162" value="E" style="ellipse;whiteSpace=wrap;html=1;aspect=fixed;fillColor=#f8cecc;strokeColor=#b85450;flipH=1;" parent="1" vertex="1">
                    <mxGeometry x="365.13000000000005" y="3336" width="40" height="40" as="geometry"/>
                </mxCell>
                <mxCell id="MP5oNKOP9dcL4W_LWbaU-171" value="iMap0" style="text;html=1;align=center;verticalAlign=middle;resizable=0;points=[];autosize=1;strokeColor=none;fillColor=none;" parent="1" vertex="1">
                    <mxGeometry x="558.6899999999999" y="3516" width="43" height="18" as="geometry"/>
                </mxCell>
                <mxCell id="MP5oNKOP9dcL4W_LWbaU-172" style="edgeStyle=orthogonalEdgeStyle;rounded=0;orthogonalLoop=1;jettySize=auto;html=1;entryX=0.5;entryY=0;entryDx=0;entryDy=0;" parent="1" source="MP5oNKOP9dcL4W_LWbaU-173" target="MP5oNKOP9dcL4W_LWbaU-159" edge="1">
                    <mxGeometry relative="1" as="geometry"/>
                </mxCell>
                <mxCell id="MP5oNKOP9dcL4W_LWbaU-207" style="edgeStyle=orthogonalEdgeStyle;rounded=0;orthogonalLoop=1;jettySize=auto;html=1;entryX=0.25;entryY=0;entryDx=0;entryDy=0;strokeColor=#FF3333;" parent="1" source="MP5oNKOP9dcL4W_LWbaU-173" target="MP5oNKOP9dcL4W_LWbaU-202" edge="1">
                    <mxGeometry relative="1" as="geometry"/>
                </mxCell>
                <mxCell id="MP5oNKOP9dcL4W_LWbaU-173" value="iNode[0-99]:iMap0&lt;br&gt;..." style="rounded=0;whiteSpace=wrap;html=1;fillColor=#e1d5e7;strokeColor=#9673a6;" parent="1" vertex="1">
                    <mxGeometry x="513.1899999999999" y="3347" width="120" height="60" as="geometry"/>
                </mxCell>
                <mxCell id="MP5oNKOP9dcL4W_LWbaU-174" value="CK snapshot" style="text;html=1;align=center;verticalAlign=middle;resizable=0;points=[];autosize=1;strokeColor=none;fillColor=none;" parent="1" vertex="1">
                    <mxGeometry x="533.6899999999999" y="3329" width="79" height="18" as="geometry"/>
                </mxCell>
                <mxCell id="MP5oNKOP9dcL4W_LWbaU-175" style="edgeStyle=orthogonalEdgeStyle;rounded=0;orthogonalLoop=1;jettySize=auto;html=1;entryX=0.5;entryY=0;entryDx=0;entryDy=0;strokeColor=#000000;" parent="1" source="MP5oNKOP9dcL4W_LWbaU-177" target="MP5oNKOP9dcL4W_LWbaU-202" edge="1">
                    <mxGeometry relative="1" as="geometry">
                        <Array as="points">
                            <mxPoint x="816.06" y="3289"/>
                        </Array>
                    </mxGeometry>
                </mxCell>
                <mxCell id="MP5oNKOP9dcL4W_LWbaU-177" value="iNode[0-99]:iMap0&lt;br&gt;..." style="rounded=0;whiteSpace=wrap;html=1;fillColor=#f8cecc;strokeColor=#b85450;" parent="1" vertex="1">
                    <mxGeometry x="513.1899999999999" y="3259" width="120" height="60" as="geometry"/>
                </mxCell>
                <mxCell id="MP5oNKOP9dcL4W_LWbaU-178" value="CK transaction" style="text;html=1;align=center;verticalAlign=middle;resizable=0;points=[];autosize=1;strokeColor=none;fillColor=none;" parent="1" vertex="1">
                    <mxGeometry x="529.06" y="3241" width="89" height="18" as="geometry"/>
                </mxCell>
                <mxCell id="MP5oNKOP9dcL4W_LWbaU-179" value="" style="curved=1;endArrow=classic;html=1;rounded=0;exitX=0.5;exitY=0;exitDx=0;exitDy=0;entryX=0.5;entryY=0;entryDx=0;entryDy=0;strokeColor=#000000;" parent="1" source="MP5oNKOP9dcL4W_LWbaU-160" target="MP5oNKOP9dcL4W_LWbaU-162" edge="1">
                    <mxGeometry width="50" height="50" relative="1" as="geometry">
                        <mxPoint x="217.25" y="3278" as="sourcePoint"/>
                        <mxPoint x="267.25" y="3228" as="targetPoint"/>
                        <Array as="points">
                            <mxPoint x="264.25" y="3292"/>
                            <mxPoint x="323.25" y="3295"/>
                        </Array>
                    </mxGeometry>
                </mxCell>
                <mxCell id="MP5oNKOP9dcL4W_LWbaU-180" value="c.next" style="edgeLabel;html=1;align=center;verticalAlign=middle;resizable=0;points=[];" parent="MP5oNKOP9dcL4W_LWbaU-179" vertex="1" connectable="0">
                    <mxGeometry x="-0.0784" y="-2" relative="1" as="geometry">
                        <mxPoint as="offset"/>
                    </mxGeometry>
                </mxCell>
                <mxCell id="MP5oNKOP9dcL4W_LWbaU-184" value="" style="group" parent="1" vertex="1" connectable="0">
                    <mxGeometry x="81.06" y="3234" width="23.629999999999995" height="19" as="geometry"/>
                </mxCell>
                <mxCell id="MP5oNKOP9dcL4W_LWbaU-185" value="" style="endArrow=none;html=1;rounded=0;strokeColor=#FF3333;" parent="MP5oNKOP9dcL4W_LWbaU-184" edge="1">
                    <mxGeometry width="50" height="50" relative="1" as="geometry">
                        <mxPoint y="18" as="sourcePoint"/>
                        <mxPoint x="22" y="3" as="targetPoint"/>
                    </mxGeometry>
                </mxCell>
                <mxCell id="MP5oNKOP9dcL4W_LWbaU-186" value="" style="endArrow=none;html=1;rounded=0;strokeColor=#FF3333;" parent="MP5oNKOP9dcL4W_LWbaU-184" edge="1">
                    <mxGeometry width="50" height="50" relative="1" as="geometry">
                        <mxPoint x="1.6299999999999955" as="sourcePoint"/>
                        <mxPoint x="23.629999999999995" y="19" as="targetPoint"/>
                    </mxGeometry>
                </mxCell>
                <mxCell id="MP5oNKOP9dcL4W_LWbaU-187" value="E.addr" style="rounded=0;whiteSpace=wrap;html=1;fillColor=#dae8fc;strokeColor=#6c8ebf;" parent="1" vertex="1">
                    <mxGeometry x="601.6899999999999" y="3462.48" width="43.38" height="50" as="geometry"/>
                </mxCell>
                <mxCell id="MP5oNKOP9dcL4W_LWbaU-188" style="edgeStyle=orthogonalEdgeStyle;rounded=0;orthogonalLoop=1;jettySize=auto;html=1;exitX=0.25;exitY=1;exitDx=0;exitDy=0;entryX=0.5;entryY=1;entryDx=0;entryDy=0;" parent="1" source="MP5oNKOP9dcL4W_LWbaU-189" target="MP5oNKOP9dcL4W_LWbaU-187" edge="1">
                    <mxGeometry relative="1" as="geometry">
                        <Array as="points">
                            <mxPoint x="657.6899999999999" y="3529.48"/>
                            <mxPoint x="623.6899999999999" y="3529.48"/>
                        </Array>
                    </mxGeometry>
                </mxCell>
                <mxCell id="MP5oNKOP9dcL4W_LWbaU-189" value="iNode1" style="rounded=0;whiteSpace=wrap;html=1;fillColor=#d5e8d4;strokeColor=#82b366;" parent="1" vertex="1">
                    <mxGeometry x="645.0699999999999" y="3462.48" width="49.62" height="50" as="geometry"/>
                </mxCell>
                <mxCell id="MP5oNKOP9dcL4W_LWbaU-190" value="c.next" style="text;html=1;align=center;verticalAlign=middle;resizable=0;points=[];autosize=1;strokeColor=none;fillColor=none;" parent="1" vertex="1">
                    <mxGeometry x="601.6899999999999" y="3444.48" width="42" height="18" as="geometry"/>
                </mxCell>
                <mxCell id="MP5oNKOP9dcL4W_LWbaU-191" value="" style="curved=1;endArrow=classic;html=1;rounded=0;strokeColor=#000000;entryX=0.5;entryY=1;entryDx=0;entryDy=0;exitX=0.5;exitY=1;exitDx=0;exitDy=0;" parent="1" source="MP5oNKOP9dcL4W_LWbaU-162" target="MP5oNKOP9dcL4W_LWbaU-160" edge="1">
                    <mxGeometry width="50" height="50" relative="1" as="geometry">
                        <mxPoint x="126.06" y="3439" as="sourcePoint"/>
                        <mxPoint x="176.06" y="3389" as="targetPoint"/>
                        <Array as="points">
                            <mxPoint x="318.06" y="3407"/>
                            <mxPoint x="268.06" y="3410"/>
                            <mxPoint x="236.06" y="3402"/>
                        </Array>
                    </mxGeometry>
                </mxCell>
                <mxCell id="MP5oNKOP9dcL4W_LWbaU-192" value="e.pre" style="edgeLabel;html=1;align=center;verticalAlign=middle;resizable=0;points=[];" parent="MP5oNKOP9dcL4W_LWbaU-191" vertex="1" connectable="0">
                    <mxGeometry x="-0.1766" y="-3" relative="1" as="geometry">
                        <mxPoint as="offset"/>
                    </mxGeometry>
                </mxCell>
                <mxCell id="MP5oNKOP9dcL4W_LWbaU-196" value="C.addr" style="rounded=0;whiteSpace=wrap;html=1;fillColor=#dae8fc;strokeColor=#6c8ebf;" parent="1" vertex="1">
                    <mxGeometry x="694.6899999999999" y="3463" width="43.38" height="50" as="geometry"/>
                </mxCell>
                <mxCell id="MP5oNKOP9dcL4W_LWbaU-197" style="edgeStyle=orthogonalEdgeStyle;rounded=0;orthogonalLoop=1;jettySize=auto;html=1;exitX=0.25;exitY=1;exitDx=0;exitDy=0;entryX=0.5;entryY=1;entryDx=0;entryDy=0;" parent="1" source="MP5oNKOP9dcL4W_LWbaU-198" target="MP5oNKOP9dcL4W_LWbaU-196" edge="1">
                    <mxGeometry relative="1" as="geometry">
                        <Array as="points">
                            <mxPoint x="750.06" y="3533"/>
                            <mxPoint x="716.06" y="3533"/>
                        </Array>
                    </mxGeometry>
                </mxCell>
                <mxCell id="MP5oNKOP9dcL4W_LWbaU-198" value="iNode4" style="rounded=0;whiteSpace=wrap;html=1;fillColor=#d5e8d4;strokeColor=#82b366;" parent="1" vertex="1">
                    <mxGeometry x="738.0699999999999" y="3463" width="49.62" height="50" as="geometry"/>
                </mxCell>
                <mxCell id="MP5oNKOP9dcL4W_LWbaU-199" value="e.pre" style="text;html=1;align=center;verticalAlign=middle;resizable=0;points=[];autosize=1;strokeColor=none;fillColor=none;" parent="1" vertex="1">
                    <mxGeometry x="697.8799999999999" y="3445" width="37" height="18" as="geometry"/>
                </mxCell>
                <mxCell id="MP5oNKOP9dcL4W_LWbaU-200" style="edgeStyle=orthogonalEdgeStyle;rounded=0;orthogonalLoop=1;jettySize=auto;html=1;entryX=0.5;entryY=1;entryDx=0;entryDy=0;strokeColor=#000000;" parent="1" source="MP5oNKOP9dcL4W_LWbaU-202" target="MP5oNKOP9dcL4W_LWbaU-198" edge="1">
                    <mxGeometry relative="1" as="geometry">
                        <Array as="points">
                            <mxPoint x="805.06" y="3533"/>
                            <mxPoint x="763.06" y="3533"/>
                        </Array>
                    </mxGeometry>
                </mxCell>
                <mxCell id="MP5oNKOP9dcL4W_LWbaU-201" style="edgeStyle=orthogonalEdgeStyle;rounded=0;orthogonalLoop=1;jettySize=auto;html=1;entryX=0.5;entryY=1;entryDx=0;entryDy=0;strokeColor=#000000;exitX=0.5;exitY=1;exitDx=0;exitDy=0;" parent="1" source="MP5oNKOP9dcL4W_LWbaU-202" target="MP5oNKOP9dcL4W_LWbaU-189" edge="1">
                    <mxGeometry relative="1" as="geometry">
                        <Array as="points">
                            <mxPoint x="816.06" y="3545"/>
                            <mxPoint x="670.06" y="3545"/>
                        </Array>
                    </mxGeometry>
                </mxCell>
                <mxCell id="MP5oNKOP9dcL4W_LWbaU-202" value="iNode1:4&lt;br&gt;iNode2:5&lt;br&gt;......" style="rounded=0;whiteSpace=wrap;html=1;fillColor=#fff2cc;strokeColor=#d6b656;" parent="1" vertex="1">
                    <mxGeometry x="787.6899999999999" y="3463" width="57" height="50" as="geometry"/>
                </mxCell>
                <mxCell id="MP5oNKOP9dcL4W_LWbaU-206" value="iMap1" style="text;html=1;align=center;verticalAlign=middle;resizable=0;points=[];autosize=1;strokeColor=none;fillColor=none;" parent="1" vertex="1">
                    <mxGeometry x="843.56" y="3479" width="43" height="18" as="geometry"/>
                </mxCell>
                <mxCell id="MP5oNKOP9dcL4W_LWbaU-208" value="" style="group" parent="1" vertex="1" connectable="0">
                    <mxGeometry x="561" y="3425" width="23.629999999999995" height="19" as="geometry"/>
                </mxCell>
                <mxCell id="MP5oNKOP9dcL4W_LWbaU-209" value="" style="endArrow=none;html=1;rounded=0;strokeColor=#FF3333;" parent="MP5oNKOP9dcL4W_LWbaU-208" edge="1">
                    <mxGeometry width="50" height="50" relative="1" as="geometry">
                        <mxPoint y="18" as="sourcePoint"/>
                        <mxPoint x="22" y="3" as="targetPoint"/>
                    </mxGeometry>
                </mxCell>
                <mxCell id="MP5oNKOP9dcL4W_LWbaU-210" value="" style="endArrow=none;html=1;rounded=0;strokeColor=#FF3333;" parent="MP5oNKOP9dcL4W_LWbaU-208" edge="1">
                    <mxGeometry width="50" height="50" relative="1" as="geometry">
                        <mxPoint x="1.6299999999999955" as="sourcePoint"/>
                        <mxPoint x="23.629999999999995" y="19" as="targetPoint"/>
                    </mxGeometry>
                </mxCell>
                <mxCell id="MP5oNKOP9dcL4W_LWbaU-211" value="" style="rounded=0;whiteSpace=wrap;html=1;fillColor=#e1d5e7;strokeColor=#9673a6;" parent="1" vertex="1">
                    <mxGeometry x="214.5" y="3728" width="120" height="127" as="geometry"/>
                </mxCell>
                <mxCell id="MP5oNKOP9dcL4W_LWbaU-212" value="StartTime" style="rounded=0;whiteSpace=wrap;html=1;" parent="1" vertex="1">
                    <mxGeometry x="223.5" y="3735" width="102" height="26" as="geometry"/>
                </mxCell>
                <mxCell id="MP5oNKOP9dcL4W_LWbaU-213" value="EndTime" style="rounded=0;whiteSpace=wrap;html=1;" parent="1" vertex="1">
                    <mxGeometry x="223.5" y="3824" width="102" height="26" as="geometry"/>
                </mxCell>
                <mxCell id="MP5oNKOP9dcL4W_LWbaU-214" value="iMap-map" style="rounded=0;whiteSpace=wrap;html=1;" parent="1" vertex="1">
                    <mxGeometry x="223.5" y="3769" width="102" height="47" as="geometry"/>
                </mxCell>
                <mxCell id="MP5oNKOP9dcL4W_LWbaU-215" value="CK" style="text;html=1;align=center;verticalAlign=middle;resizable=0;points=[];autosize=1;strokeColor=none;fillColor=none;" parent="1" vertex="1">
                    <mxGeometry x="261" y="3704" width="27" height="18" as="geometry"/>
                </mxCell>
                <mxCell id="MP5oNKOP9dcL4W_LWbaU-222" style="edgeStyle=orthogonalEdgeStyle;rounded=0;orthogonalLoop=1;jettySize=auto;html=1;entryX=1.026;entryY=0.578;entryDx=0;entryDy=0;entryPerimeter=0;strokeColor=#FF9999;endArrow=none;endFill=0;dashed=1;" parent="1" source="MP5oNKOP9dcL4W_LWbaU-216" target="MP5oNKOP9dcL4W_LWbaU-218" edge="1">
                    <mxGeometry relative="1" as="geometry">
                        <Array as="points">
                            <mxPoint x="532" y="3737"/>
                            <mxPoint x="532" y="3844"/>
                        </Array>
                    </mxGeometry>
                </mxCell>
                <mxCell id="MP5oNKOP9dcL4W_LWbaU-223" value="equal" style="edgeLabel;html=1;align=center;verticalAlign=middle;resizable=0;points=[];" parent="MP5oNKOP9dcL4W_LWbaU-222" vertex="1" connectable="0">
                    <mxGeometry x="-0.0567" relative="1" as="geometry">
                        <mxPoint as="offset"/>
                    </mxGeometry>
                </mxCell>
                <mxCell id="MP5oNKOP9dcL4W_LWbaU-216" value="write StartTIme" style="text;html=1;align=center;verticalAlign=middle;resizable=0;points=[];autosize=1;strokeColor=none;fillColor=none;" parent="1" vertex="1">
                    <mxGeometry x="380" y="3728" width="91" height="18" as="geometry"/>
                </mxCell>
                <mxCell id="MP5oNKOP9dcL4W_LWbaU-217" value="write iMap-map" style="text;html=1;align=center;verticalAlign=middle;resizable=0;points=[];autosize=1;strokeColor=none;fillColor=none;" parent="1" vertex="1">
                    <mxGeometry x="380" y="3781" width="92" height="18" as="geometry"/>
                </mxCell>
                <mxCell id="MP5oNKOP9dcL4W_LWbaU-218" value="write endTime" style="text;html=1;align=center;verticalAlign=middle;resizable=0;points=[];autosize=1;strokeColor=none;fillColor=none;" parent="1" vertex="1">
                    <mxGeometry x="380" y="3834" width="85" height="18" as="geometry"/>
                </mxCell>
                <mxCell id="MP5oNKOP9dcL4W_LWbaU-220" value="" style="endArrow=classic;html=1;strokeColor=default;rounded=0;" parent="1" edge="1">
                    <mxGeometry width="50" height="50" relative="1" as="geometry">
                        <mxPoint x="359.58000000000004" y="3728" as="sourcePoint"/>
                        <mxPoint x="360" y="3858" as="targetPoint"/>
                    </mxGeometry>
                </mxCell>
                <mxCell id="MP5oNKOP9dcL4W_LWbaU-224" value="time" style="text;html=1;align=center;verticalAlign=middle;resizable=0;points=[];autosize=1;strokeColor=none;fillColor=none;" parent="1" vertex="1">
                    <mxGeometry x="344.88" y="3704" width="33" height="18" as="geometry"/>
                </mxCell>
                <mxCell id="MP5oNKOP9dcL4W_LWbaU-227" value="iNode1" style="rounded=0;whiteSpace=wrap;html=1;fillColor=#d5e8d4;strokeColor=#82b366;" parent="1" vertex="1">
                    <mxGeometry x="229.24" y="4236" width="49.62" height="50" as="geometry"/>
                </mxCell>
                <mxCell id="MP5oNKOP9dcL4W_LWbaU-228" style="edgeStyle=orthogonalEdgeStyle;rounded=0;orthogonalLoop=1;jettySize=auto;html=1;entryX=0.5;entryY=1;entryDx=0;entryDy=0;exitX=0.5;exitY=1;exitDx=0;exitDy=0;" parent="1" source="MP5oNKOP9dcL4W_LWbaU-229" target="MP5oNKOP9dcL4W_LWbaU-227" edge="1">
                    <mxGeometry relative="1" as="geometry">
                        <Array as="points">
                            <mxPoint x="307.8599999999999" y="4318"/>
                            <mxPoint x="253.8599999999999" y="4318"/>
                        </Array>
                    </mxGeometry>
                </mxCell>
                <mxCell id="MP5oNKOP9dcL4W_LWbaU-229" value="iNode1:0&lt;br&gt;iNode2:1&lt;br&gt;......" style="rounded=0;whiteSpace=wrap;html=1;fillColor=#fff2cc;strokeColor=#d6b656;" parent="1" vertex="1">
                    <mxGeometry x="278.8599999999999" y="4236" width="57" height="50" as="geometry"/>
                </mxCell>
                <mxCell id="MP5oNKOP9dcL4W_LWbaU-230" value="iMap0" style="text;html=1;align=center;verticalAlign=middle;resizable=0;points=[];autosize=1;strokeColor=none;fillColor=none;" parent="1" vertex="1">
                    <mxGeometry x="282.4999999999999" y="4291" width="43" height="18" as="geometry"/>
                </mxCell>
                <mxCell id="MP5oNKOP9dcL4W_LWbaU-231" style="edgeStyle=orthogonalEdgeStyle;rounded=0;orthogonalLoop=1;jettySize=auto;html=1;entryX=0.5;entryY=0;entryDx=0;entryDy=0;" parent="1" source="MP5oNKOP9dcL4W_LWbaU-233" target="MP5oNKOP9dcL4W_LWbaU-229" edge="1">
                    <mxGeometry relative="1" as="geometry"/>
                </mxCell>
                <mxCell id="MP5oNKOP9dcL4W_LWbaU-232" style="edgeStyle=orthogonalEdgeStyle;rounded=0;orthogonalLoop=1;jettySize=auto;html=1;entryX=0.25;entryY=0;entryDx=0;entryDy=0;strokeColor=#FF3333;" parent="1" source="MP5oNKOP9dcL4W_LWbaU-233" target="MP5oNKOP9dcL4W_LWbaU-248" edge="1">
                    <mxGeometry relative="1" as="geometry"/>
                </mxCell>
                <mxCell id="MP5oNKOP9dcL4W_LWbaU-233" value="iNode[0-99]:iMap0&lt;br&gt;..." style="rounded=0;whiteSpace=wrap;html=1;fillColor=#e1d5e7;strokeColor=#9673a6;" parent="1" vertex="1">
                    <mxGeometry x="247.3599999999999" y="4121" width="120" height="60" as="geometry"/>
                </mxCell>
                <mxCell id="MP5oNKOP9dcL4W_LWbaU-234" value="CK" style="text;html=1;align=center;verticalAlign=middle;resizable=0;points=[];autosize=1;strokeColor=none;fillColor=none;" parent="1" vertex="1">
                    <mxGeometry x="293.8599999999999" y="4103" width="27" height="18" as="geometry"/>
                </mxCell>
                <mxCell id="MP5oNKOP9dcL4W_LWbaU-238" value="D2" style="rounded=0;whiteSpace=wrap;html=1;fillColor=#dae8fc;strokeColor=#6c8ebf;" parent="1" vertex="1">
                    <mxGeometry x="335.8599999999999" y="4236.48" width="43.38" height="50" as="geometry"/>
                </mxCell>
                <mxCell id="MP5oNKOP9dcL4W_LWbaU-239" style="edgeStyle=orthogonalEdgeStyle;rounded=0;orthogonalLoop=1;jettySize=auto;html=1;exitX=0.25;exitY=1;exitDx=0;exitDy=0;entryX=0.5;entryY=1;entryDx=0;entryDy=0;" parent="1" source="MP5oNKOP9dcL4W_LWbaU-240" target="MP5oNKOP9dcL4W_LWbaU-238" edge="1">
                    <mxGeometry relative="1" as="geometry">
                        <Array as="points">
                            <mxPoint x="391.8599999999999" y="4303.48"/>
                            <mxPoint x="357.8599999999999" y="4303.48"/>
                        </Array>
                    </mxGeometry>
                </mxCell>
                <mxCell id="MP5oNKOP9dcL4W_LWbaU-240" value="iNode1" style="rounded=0;whiteSpace=wrap;html=1;fillColor=#d5e8d4;strokeColor=#82b366;" parent="1" vertex="1">
                    <mxGeometry x="379.2399999999999" y="4236.48" width="49.62" height="50" as="geometry"/>
                </mxCell>
                <mxCell id="MP5oNKOP9dcL4W_LWbaU-242" value="D3" style="rounded=0;whiteSpace=wrap;html=1;fillColor=#dae8fc;strokeColor=#6c8ebf;" parent="1" vertex="1">
                    <mxGeometry x="428.8599999999999" y="4237" width="43.38" height="50" as="geometry"/>
                </mxCell>
                <mxCell id="MP5oNKOP9dcL4W_LWbaU-243" style="edgeStyle=orthogonalEdgeStyle;rounded=0;orthogonalLoop=1;jettySize=auto;html=1;exitX=0.25;exitY=1;exitDx=0;exitDy=0;entryX=0.5;entryY=1;entryDx=0;entryDy=0;" parent="1" source="MP5oNKOP9dcL4W_LWbaU-244" target="MP5oNKOP9dcL4W_LWbaU-242" edge="1">
                    <mxGeometry relative="1" as="geometry">
                        <Array as="points">
                            <mxPoint x="484.2299999999999" y="4307"/>
                            <mxPoint x="450.2299999999999" y="4307"/>
                        </Array>
                    </mxGeometry>
                </mxCell>
                <mxCell id="MP5oNKOP9dcL4W_LWbaU-244" value="iNode3" style="rounded=0;whiteSpace=wrap;html=1;fillColor=#d5e8d4;strokeColor=#82b366;" parent="1" vertex="1">
                    <mxGeometry x="472.2399999999999" y="4237" width="49.62" height="50" as="geometry"/>
                </mxCell>
                <mxCell id="MP5oNKOP9dcL4W_LWbaU-246" style="edgeStyle=orthogonalEdgeStyle;rounded=0;orthogonalLoop=1;jettySize=auto;html=1;entryX=0.5;entryY=1;entryDx=0;entryDy=0;strokeColor=#000000;" parent="1" source="MP5oNKOP9dcL4W_LWbaU-248" target="MP5oNKOP9dcL4W_LWbaU-244" edge="1">
                    <mxGeometry relative="1" as="geometry">
                        <Array as="points">
                            <mxPoint x="539.2299999999999" y="4307"/>
                            <mxPoint x="497.2299999999999" y="4307"/>
                        </Array>
                    </mxGeometry>
                </mxCell>
                <mxCell id="MP5oNKOP9dcL4W_LWbaU-247" style="edgeStyle=orthogonalEdgeStyle;rounded=0;orthogonalLoop=1;jettySize=auto;html=1;entryX=0.5;entryY=1;entryDx=0;entryDy=0;strokeColor=#000000;exitX=0.5;exitY=1;exitDx=0;exitDy=0;" parent="1" source="MP5oNKOP9dcL4W_LWbaU-248" target="MP5oNKOP9dcL4W_LWbaU-240" edge="1">
                    <mxGeometry relative="1" as="geometry">
                        <Array as="points">
                            <mxPoint x="550.2299999999999" y="4319"/>
                            <mxPoint x="404.2299999999999" y="4319"/>
                        </Array>
                    </mxGeometry>
                </mxCell>
                <mxCell id="MP5oNKOP9dcL4W_LWbaU-248" value="iNode1:1&lt;br&gt;iNode3:2&lt;br&gt;......" style="rounded=0;whiteSpace=wrap;html=1;fillColor=#fff2cc;strokeColor=#d6b656;" parent="1" vertex="1">
                    <mxGeometry x="521.8599999999999" y="4237" width="57" height="50" as="geometry"/>
                </mxCell>
                <mxCell id="MP5oNKOP9dcL4W_LWbaU-249" value="iMap1" style="text;html=1;align=center;verticalAlign=middle;resizable=0;points=[];autosize=1;strokeColor=none;fillColor=none;" parent="1" vertex="1">
                    <mxGeometry x="577.7299999999999" y="4253" width="43" height="18" as="geometry"/>
                </mxCell>
                <mxCell id="MP5oNKOP9dcL4W_LWbaU-250" value="" style="group" parent="1" vertex="1" connectable="0">
                    <mxGeometry x="295.16999999999996" y="4199" width="23.629999999999995" height="19" as="geometry"/>
                </mxCell>
                <mxCell id="MP5oNKOP9dcL4W_LWbaU-251" value="" style="endArrow=none;html=1;rounded=0;strokeColor=#FF3333;" parent="MP5oNKOP9dcL4W_LWbaU-250" edge="1">
                    <mxGeometry width="50" height="50" relative="1" as="geometry">
                        <mxPoint y="18" as="sourcePoint"/>
                        <mxPoint x="22" y="3" as="targetPoint"/>
                    </mxGeometry>
                </mxCell>
                <mxCell id="MP5oNKOP9dcL4W_LWbaU-252" value="" style="endArrow=none;html=1;rounded=0;strokeColor=#FF3333;" parent="MP5oNKOP9dcL4W_LWbaU-250" edge="1">
                    <mxGeometry width="50" height="50" relative="1" as="geometry">
                        <mxPoint x="1.6299999999999955" as="sourcePoint"/>
                        <mxPoint x="23.629999999999995" y="19" as="targetPoint"/>
                    </mxGeometry>
                </mxCell>
                <mxCell id="MP5oNKOP9dcL4W_LWbaU-253" value="D1" style="rounded=0;whiteSpace=wrap;html=1;fillColor=#dae8fc;strokeColor=#6c8ebf;" parent="1" vertex="1">
                    <mxGeometry x="185.8599999999999" y="4236" width="43.38" height="50" as="geometry"/>
                </mxCell>
                <mxCell id="MP5oNKOP9dcL4W_LWbaU-254" value="LastWriteStartAddr" style="text;html=1;align=center;verticalAlign=middle;resizable=0;points=[];autosize=1;strokeColor=none;fillColor=none;" parent="1" vertex="1">
                    <mxGeometry x="110" y="4200" width="111" height="18" as="geometry"/>
                </mxCell>
                <mxCell id="MP5oNKOP9dcL4W_LWbaU-255" value="" style="endArrow=classic;html=1;rounded=0;dashed=1;strokeColor=#000000;exitX=0.393;exitY=1.133;exitDx=0;exitDy=0;exitPerimeter=0;" parent="1" source="MP5oNKOP9dcL4W_LWbaU-254" edge="1">
                    <mxGeometry width="50" height="50" relative="1" as="geometry">
                        <mxPoint x="97" y="4273" as="sourcePoint"/>
                        <mxPoint x="180" y="4237" as="targetPoint"/>
                    </mxGeometry>
                </mxCell>
                <mxCell id="MP5oNKOP9dcL4W_LWbaU-256" value="read from start addr to end" style="endArrow=classic;html=1;rounded=0;strokeColor=#000000;" parent="1" edge="1">
                    <mxGeometry width="50" height="50" relative="1" as="geometry">
                        <mxPoint x="157.54999999999998" y="4345" as="sourcePoint"/>
                        <mxPoint x="577.73" y="4345" as="targetPoint"/>
                    </mxGeometry>
                </mxCell>
                <mxCell id="MP5oNKOP9dcL4W_LWbaU-257" value="iNode1" style="rounded=0;whiteSpace=wrap;html=1;fillColor=#d5e8d4;strokeColor=#82b366;" parent="1" vertex="1">
                    <mxGeometry x="210.2" y="4567" width="49.62" height="50" as="geometry"/>
                </mxCell>
                <mxCell id="MP5oNKOP9dcL4W_LWbaU-258" style="edgeStyle=orthogonalEdgeStyle;rounded=0;orthogonalLoop=1;jettySize=auto;html=1;entryX=0.5;entryY=1;entryDx=0;entryDy=0;exitX=0.5;exitY=1;exitDx=0;exitDy=0;" parent="1" source="MP5oNKOP9dcL4W_LWbaU-259" target="MP5oNKOP9dcL4W_LWbaU-257" edge="1">
                    <mxGeometry relative="1" as="geometry">
                        <Array as="points">
                            <mxPoint x="288.8199999999999" y="4649"/>
                            <mxPoint x="234.81999999999988" y="4649"/>
                        </Array>
                    </mxGeometry>
                </mxCell>
                <mxCell id="MP5oNKOP9dcL4W_LWbaU-259" value="iNode1:0&lt;br&gt;iNode2:1&lt;br&gt;......" style="rounded=0;whiteSpace=wrap;html=1;fillColor=#fff2cc;strokeColor=#d6b656;" parent="1" vertex="1">
                    <mxGeometry x="259.8199999999999" y="4567" width="57" height="50" as="geometry"/>
                </mxCell>
                <mxCell id="MP5oNKOP9dcL4W_LWbaU-260" value="iMap0" style="text;html=1;align=center;verticalAlign=middle;resizable=0;points=[];autosize=1;strokeColor=none;fillColor=none;" parent="1" vertex="1">
                    <mxGeometry x="263.45999999999987" y="4622" width="43" height="18" as="geometry"/>
                </mxCell>
                <mxCell id="MP5oNKOP9dcL4W_LWbaU-261" style="edgeStyle=orthogonalEdgeStyle;rounded=0;orthogonalLoop=1;jettySize=auto;html=1;entryX=0.5;entryY=0;entryDx=0;entryDy=0;" parent="1" source="MP5oNKOP9dcL4W_LWbaU-263" target="MP5oNKOP9dcL4W_LWbaU-259" edge="1">
                    <mxGeometry relative="1" as="geometry"/>
                </mxCell>
                <mxCell id="MP5oNKOP9dcL4W_LWbaU-262" style="edgeStyle=orthogonalEdgeStyle;rounded=0;orthogonalLoop=1;jettySize=auto;html=1;entryX=0.5;entryY=0;entryDx=0;entryDy=0;strokeColor=#FF3333;" parent="1" source="MP5oNKOP9dcL4W_LWbaU-263" target="MP5oNKOP9dcL4W_LWbaU-285" edge="1">
                    <mxGeometry relative="1" as="geometry"/>
                </mxCell>
                <mxCell id="MP5oNKOP9dcL4W_LWbaU-263" value="iNode[0-99]:iMap0&lt;br&gt;..." style="rounded=0;whiteSpace=wrap;html=1;fillColor=#e1d5e7;strokeColor=#9673a6;" parent="1" vertex="1">
                    <mxGeometry x="228.31999999999988" y="4452" width="120" height="60" as="geometry"/>
                </mxCell>
                <mxCell id="MP5oNKOP9dcL4W_LWbaU-264" value="CK" style="text;html=1;align=center;verticalAlign=middle;resizable=0;points=[];autosize=1;strokeColor=none;fillColor=none;" parent="1" vertex="1">
                    <mxGeometry x="274.8199999999999" y="4434" width="27" height="18" as="geometry"/>
                </mxCell>
                <mxCell id="MP5oNKOP9dcL4W_LWbaU-265" value="D2" style="rounded=0;whiteSpace=wrap;html=1;fillColor=#dae8fc;strokeColor=#6c8ebf;" parent="1" vertex="1">
                    <mxGeometry x="366.3799999999999" y="4567" width="43.38" height="50" as="geometry"/>
                </mxCell>
                <mxCell id="MP5oNKOP9dcL4W_LWbaU-267" value="iNode1" style="rounded=0;whiteSpace=wrap;html=1;fillColor=#d5e8d4;strokeColor=#82b366;" parent="1" vertex="1">
                    <mxGeometry x="409.7599999999999" y="4567" width="49.62" height="50" as="geometry"/>
                </mxCell>
                <mxCell id="MP5oNKOP9dcL4W_LWbaU-268" value="D3" style="rounded=0;whiteSpace=wrap;html=1;fillColor=#dae8fc;strokeColor=#6c8ebf;" parent="1" vertex="1">
                    <mxGeometry x="565.9499999999999" y="4567" width="43.38" height="50" as="geometry"/>
                </mxCell>
                <mxCell id="MP5oNKOP9dcL4W_LWbaU-270" value="iNode3" style="rounded=0;whiteSpace=wrap;html=1;fillColor=#d5e8d4;strokeColor=#82b366;" parent="1" vertex="1">
                    <mxGeometry x="609.3299999999999" y="4567" width="49.62" height="50" as="geometry"/>
                </mxCell>
                <mxCell id="MP5oNKOP9dcL4W_LWbaU-273" value="iNode1:1&lt;br&gt;iNode3:2&lt;br&gt;......" style="rounded=0;whiteSpace=wrap;html=1;fillColor=#fff2cc;strokeColor=#d6b656;" parent="1" vertex="1">
                    <mxGeometry x="658.9499999999999" y="4567" width="57" height="50" as="geometry"/>
                </mxCell>
                <mxCell id="MP5oNKOP9dcL4W_LWbaU-275" value="" style="group" parent="1" vertex="1" connectable="0">
                    <mxGeometry x="276.12999999999994" y="4530" width="23.629999999999995" height="19" as="geometry"/>
                </mxCell>
                <mxCell id="MP5oNKOP9dcL4W_LWbaU-276" value="" style="endArrow=none;html=1;rounded=0;strokeColor=#FF3333;" parent="MP5oNKOP9dcL4W_LWbaU-275" edge="1">
                    <mxGeometry width="50" height="50" relative="1" as="geometry">
                        <mxPoint y="18" as="sourcePoint"/>
                        <mxPoint x="22" y="3" as="targetPoint"/>
                    </mxGeometry>
                </mxCell>
                <mxCell id="MP5oNKOP9dcL4W_LWbaU-277" value="" style="endArrow=none;html=1;rounded=0;strokeColor=#FF3333;" parent="MP5oNKOP9dcL4W_LWbaU-275" edge="1">
                    <mxGeometry width="50" height="50" relative="1" as="geometry">
                        <mxPoint x="1.6299999999999955" as="sourcePoint"/>
                        <mxPoint x="23.629999999999995" y="19" as="targetPoint"/>
                    </mxGeometry>
                </mxCell>
                <mxCell id="MP5oNKOP9dcL4W_LWbaU-278" value="D1" style="rounded=0;whiteSpace=wrap;html=1;fillColor=#dae8fc;strokeColor=#6c8ebf;" parent="1" vertex="1">
                    <mxGeometry x="166.81999999999988" y="4567" width="43.38" height="50" as="geometry"/>
                </mxCell>
                <mxCell id="MP5oNKOP9dcL4W_LWbaU-279" value="LastWriteStartAddr" style="text;html=1;align=center;verticalAlign=middle;resizable=0;points=[];autosize=1;strokeColor=none;fillColor=none;" parent="1" vertex="1">
                    <mxGeometry x="69.75000000000001" y="4517" width="111" height="18" as="geometry"/>
                </mxCell>
                <mxCell id="MP5oNKOP9dcL4W_LWbaU-280" value="" style="endArrow=classic;html=1;rounded=0;dashed=1;strokeColor=#000000;exitX=0.393;exitY=1.133;exitDx=0;exitDy=0;exitPerimeter=0;" parent="1" source="MP5oNKOP9dcL4W_LWbaU-279" edge="1">
                    <mxGeometry width="50" height="50" relative="1" as="geometry">
                        <mxPoint x="77.96000000000001" y="4604" as="sourcePoint"/>
                        <mxPoint x="138" y="4561" as="targetPoint"/>
                    </mxGeometry>
                </mxCell>
                <mxCell id="MP5oNKOP9dcL4W_LWbaU-281" value="read from start addr to end" style="endArrow=classic;html=1;rounded=0;strokeColor=#000000;" parent="1" edge="1">
                    <mxGeometry width="50" height="50" relative="1" as="geometry">
                        <mxPoint x="138.50999999999996" y="4676" as="sourcePoint"/>
                        <mxPoint x="541" y="4676" as="targetPoint"/>
                    </mxGeometry>
                </mxCell>
                <mxCell id="MP5oNKOP9dcL4W_LWbaU-282" value="TS" style="rounded=0;whiteSpace=wrap;html=1;fillColor=#f8cecc;strokeColor=#b85450;" parent="1" vertex="1">
                    <mxGeometry x="141.82" y="4567" width="25" height="50" as="geometry"/>
                </mxCell>
                <mxCell id="MP5oNKOP9dcL4W_LWbaU-283" value="TD" style="rounded=0;whiteSpace=wrap;html=1;fillColor=#f8cecc;strokeColor=#b85450;" parent="1" vertex="1">
                    <mxGeometry x="316.38" y="4567" width="25" height="50" as="geometry"/>
                </mxCell>
                <mxCell id="MP5oNKOP9dcL4W_LWbaU-284" value="TS" style="rounded=0;whiteSpace=wrap;html=1;fillColor=#f8cecc;strokeColor=#b85450;" parent="1" vertex="1">
                    <mxGeometry x="341.38" y="4567" width="25" height="50" as="geometry"/>
                </mxCell>
                <mxCell id="MP5oNKOP9dcL4W_LWbaU-285" value="iNode1:1&lt;br&gt;iNode3:2&lt;br&gt;......" style="rounded=0;whiteSpace=wrap;html=1;fillColor=#fff2cc;strokeColor=#d6b656;" parent="1" vertex="1">
                    <mxGeometry x="459.3799999999999" y="4567" width="57" height="50" as="geometry"/>
                </mxCell>
                <mxCell id="MP5oNKOP9dcL4W_LWbaU-286" value="TS" style="rounded=0;whiteSpace=wrap;html=1;fillColor=#f8cecc;strokeColor=#b85450;" parent="1" vertex="1">
                    <mxGeometry x="541.38" y="4567" width="25" height="50" as="geometry"/>
                </mxCell>
                <mxCell id="MP5oNKOP9dcL4W_LWbaU-287" value="TD" style="rounded=0;whiteSpace=wrap;html=1;fillColor=#f8cecc;strokeColor=#b85450;" parent="1" vertex="1">
                    <mxGeometry x="516.38" y="4567" width="25" height="50" as="geometry"/>
                </mxCell>
                <mxCell id="MP5oNKOP9dcL4W_LWbaU-288" value="TR" style="rounded=0;whiteSpace=wrap;html=1;fillColor=#f8cecc;strokeColor=#b85450;" parent="1" vertex="1">
                    <mxGeometry x="715.95" y="4567" width="25" height="50" as="geometry"/>
                </mxCell>
                <mxCell id="MP5oNKOP9dcL4W_LWbaU-291" value="committed transaction" style="text;html=1;strokeColor=none;fillColor=none;align=center;verticalAlign=middle;whiteSpace=wrap;rounded=0;dashed=1;" parent="1" vertex="1">
                    <mxGeometry x="377.88" y="4627" width="133.62" height="30" as="geometry"/>
                </mxCell>
                <mxCell id="MP5oNKOP9dcL4W_LWbaU-292" value="rollbacked transaction" style="text;html=1;strokeColor=none;fillColor=none;align=center;verticalAlign=middle;whiteSpace=wrap;rounded=0;dashed=1;" parent="1" vertex="1">
                    <mxGeometry x="577.73" y="4627" width="133.62" height="30" as="geometry"/>
                </mxCell>
                <mxCell id="MP5oNKOP9dcL4W_LWbaU-293" value="junk" style="text;html=1;strokeColor=none;fillColor=none;align=center;verticalAlign=middle;whiteSpace=wrap;rounded=0;dashed=1;" parent="1" vertex="1">
                    <mxGeometry x="650" y="4482" width="60" height="30" as="geometry"/>
                </mxCell>
                <mxCell id="MP5oNKOP9dcL4W_LWbaU-295" value="" style="endArrow=classic;html=1;rounded=0;strokeColor=#000000;entryX=0.377;entryY=0.016;entryDx=0;entryDy=0;entryPerimeter=0;exitX=0.25;exitY=1;exitDx=0;exitDy=0;dashed=1;" parent="1" source="MP5oNKOP9dcL4W_LWbaU-293" target="MP5oNKOP9dcL4W_LWbaU-289" edge="1">
                    <mxGeometry width="50" height="50" relative="1" as="geometry">
                        <mxPoint x="582" y="4512" as="sourcePoint"/>
                        <mxPoint x="632" y="4462" as="targetPoint"/>
                    </mxGeometry>
                </mxCell>
                <mxCell id="6" value="" style="rounded=0;whiteSpace=wrap;html=1;" vertex="1" parent="1">
                    <mxGeometry x="171" y="4922" width="591" height="50" as="geometry"/>
                </mxCell>
                <mxCell id="7" value="D" style="rounded=0;whiteSpace=wrap;html=1;fillColor=#dae8fc;strokeColor=#6c8ebf;" vertex="1" parent="1">
                    <mxGeometry x="170.63" y="4922" width="42.62" height="50" as="geometry"/>
                </mxCell>
                <mxCell id="8" value="" style="rounded=0;whiteSpace=wrap;html=1;fillColor=#CCFFE6;strokeColor=none;gradientColor=none;" vertex="1" parent="1">
                    <mxGeometry x="213.57" y="4922" width="42.62" height="50" as="geometry"/>
                </mxCell>
                <mxCell id="10" value="D" style="rounded=0;whiteSpace=wrap;html=1;fillColor=#dae8fc;strokeColor=#6c8ebf;" vertex="1" parent="1">
                    <mxGeometry x="255.56" y="4922" width="42.62" height="50" as="geometry"/>
                </mxCell>
                <mxCell id="11" value="" style="rounded=0;whiteSpace=wrap;html=1;fillColor=#CCFFE6;strokeColor=none;gradientColor=none;" vertex="1" parent="1">
                    <mxGeometry x="298.5" y="4922" width="42.62" height="50" as="geometry"/>
                </mxCell>
                <mxCell id="12" value="D" style="rounded=0;whiteSpace=wrap;html=1;fillColor=#dae8fc;strokeColor=#6c8ebf;" vertex="1" parent="1">
                    <mxGeometry x="340.5" y="4922" width="42.62" height="50" as="geometry"/>
                </mxCell>
                <mxCell id="13" value="" style="rounded=0;whiteSpace=wrap;html=1;fillColor=#CCFFE6;strokeColor=none;gradientColor=none;" vertex="1" parent="1">
                    <mxGeometry x="383.44" y="4922" width="42.62" height="50" as="geometry"/>
                </mxCell>
                <mxCell id="14" value="D" style="rounded=0;whiteSpace=wrap;html=1;fillColor=#dae8fc;strokeColor=#6c8ebf;" vertex="1" parent="1">
                    <mxGeometry x="425.86" y="4922" width="42.62" height="50" as="geometry"/>
                </mxCell>
                <mxCell id="15" value="" style="rounded=0;whiteSpace=wrap;html=1;fillColor=#CCFFE6;strokeColor=none;gradientColor=none;" vertex="1" parent="1">
                    <mxGeometry x="468.8" y="4922" width="42.62" height="50" as="geometry"/>
                </mxCell>
                <mxCell id="16" value="D" style="rounded=0;whiteSpace=wrap;html=1;fillColor=#dae8fc;strokeColor=#6c8ebf;" vertex="1" parent="1">
                    <mxGeometry x="510" y="4922" width="42.62" height="50" as="geometry"/>
                </mxCell>
                <mxCell id="17" value="" style="rounded=0;whiteSpace=wrap;html=1;fillColor=#CCFFE6;strokeColor=none;gradientColor=none;" vertex="1" parent="1">
                    <mxGeometry x="552.94" y="4922" width="42.62" height="50" as="geometry"/>
                </mxCell>
                <mxCell id="18" value="D" style="rounded=0;whiteSpace=wrap;html=1;fillColor=#dae8fc;strokeColor=#6c8ebf;" vertex="1" parent="1">
                    <mxGeometry x="596" y="4922" width="42.62" height="50" as="geometry"/>
                </mxCell>
                <mxCell id="19" value="" style="rounded=0;whiteSpace=wrap;html=1;fillColor=#CCFFE6;strokeColor=none;gradientColor=none;" vertex="1" parent="1">
                    <mxGeometry x="638.94" y="4922" width="42.62" height="50" as="geometry"/>
                </mxCell>
                <mxCell id="21" value="" style="rounded=0;whiteSpace=wrap;html=1;fillColor=#CCFFE6;strokeColor=none;gradientColor=none;" vertex="1" parent="1">
                    <mxGeometry x="718.98" y="4922" width="42.62" height="50" as="geometry"/>
                </mxCell>
                <mxCell id="23" value="" style="endArrow=classic;html=1;entryX=0.5;entryY=0;entryDx=0;entryDy=0;exitX=0.389;exitY=1.028;exitDx=0;exitDy=0;exitPerimeter=0;" edge="1" parent="1" source="24" target="7">
                    <mxGeometry width="50" height="50" relative="1" as="geometry">
                        <mxPoint x="250" y="4862" as="sourcePoint"/>
                        <mxPoint x="191" y="4919" as="targetPoint"/>
                    </mxGeometry>
                </mxCell>
                <mxCell id="24" value="Data" style="text;html=1;align=center;verticalAlign=middle;resizable=0;points=[];autosize=1;strokeColor=none;fillColor=none;" vertex="1" parent="1">
                    <mxGeometry x="263" y="4855" width="36" height="18" as="geometry"/>
                </mxCell>
                <mxCell id="25" value="" style="endArrow=classic;html=1;entryX=0.25;entryY=0;entryDx=0;entryDy=0;" edge="1" parent="1" source="26" target="11">
                    <mxGeometry width="50" height="50" relative="1" as="geometry">
                        <mxPoint x="363" y="4889" as="sourcePoint"/>
                        <mxPoint x="321.94000000000005" y="4922" as="targetPoint"/>
                    </mxGeometry>
                </mxCell>
                <mxCell id="26" value="free space" style="text;html=1;align=center;verticalAlign=middle;resizable=0;points=[];autosize=1;strokeColor=none;fillColor=none;" vertex="1" parent="1">
                    <mxGeometry x="313.5" y="4855" width="66" height="18" as="geometry"/>
                </mxCell>
                <mxCell id="27" value="" style="rounded=0;whiteSpace=wrap;html=1;" vertex="1" parent="1">
                    <mxGeometry x="172.39" y="5111" width="591" height="50" as="geometry"/>
                </mxCell>
                <mxCell id="38" value="D" style="rounded=0;whiteSpace=wrap;html=1;fillColor=#dae8fc;strokeColor=default;" vertex="1" parent="1">
                    <mxGeometry x="426" y="5111" width="214.01" height="50" as="geometry"/>
                </mxCell>
                <mxCell id="41" value="" style="rounded=0;whiteSpace=wrap;html=1;fillColor=#CCFFE6;strokeColor=default;gradientColor=none;" vertex="1" parent="1">
                    <mxGeometry x="640" y="5111" width="123" height="50" as="geometry"/>
                </mxCell>
                <mxCell id="42" value="" style="endArrow=classic;html=1;entryX=0;entryY=0;entryDx=0;entryDy=0;exitX=0.389;exitY=1.028;exitDx=0;exitDy=0;exitPerimeter=0;" edge="1" parent="1" source="43" target="38">
                    <mxGeometry width="50" height="50" relative="1" as="geometry">
                        <mxPoint x="251.39" y="5051" as="sourcePoint"/>
                        <mxPoint x="193.33000000000015" y="5111" as="targetPoint"/>
                    </mxGeometry>
                </mxCell>
                <mxCell id="43" value="log start" style="text;html=1;align=center;verticalAlign=middle;resizable=0;points=[];autosize=1;strokeColor=none;fillColor=none;" vertex="1" parent="1">
                    <mxGeometry x="461" y="5046" width="53" height="18" as="geometry"/>
                </mxCell>
                <mxCell id="44" value="" style="endArrow=classic;html=1;entryX=1;entryY=0;entryDx=0;entryDy=0;" edge="1" parent="1" source="45" target="38">
                    <mxGeometry width="50" height="50" relative="1" as="geometry">
                        <mxPoint x="364.39" y="5078" as="sourcePoint"/>
                        <mxPoint x="310.5449999999996" y="5111" as="targetPoint"/>
                    </mxGeometry>
                </mxCell>
                <mxCell id="45" value="lastWriteStartAddr&lt;br&gt;" style="text;html=1;align=center;verticalAlign=middle;resizable=0;points=[];autosize=1;strokeColor=none;fillColor=none;rotation=0;" vertex="1" parent="1">
                    <mxGeometry x="536.5" y="5050" width="107" height="18" as="geometry"/>
                </mxCell>
                <mxCell id="47" value="" style="rounded=0;whiteSpace=wrap;html=1;fillColor=#CCFFE6;strokeColor=default;gradientColor=none;" vertex="1" parent="1">
                    <mxGeometry x="172.51" y="5111" width="253.49" height="50" as="geometry"/>
                </mxCell>
                <mxCell id="20" value="D" style="rounded=0;whiteSpace=wrap;html=1;fillColor=#dae8fc;strokeColor=#6c8ebf;" vertex="1" parent="1">
                    <mxGeometry x="681.04" y="4922" width="42.62" height="50" as="geometry"/>
                </mxCell>
            </root>
        </mxGraphModel>
    </diagram>
</mxfile>